%FSLAX34Y34*%
G04 Gerber Fmt 3.4, Leading zero omitted, Abs format*
G04 (created by PCBNEW (2014-02-21 BZR 4712)-product) date Tue 25 Feb 2014 10:03:02 PM PST*
%MOIN*%
G01*
G70*
G90*
G04 APERTURE LIST*
%ADD10C,0.005906*%
%ADD11C,0.008000*%
%ADD12C,0.007874*%
%ADD13C,0.010000*%
%ADD14C,0.015000*%
%ADD15C,0.005000*%
G04 APERTURE END LIST*
G54D10*
G54D11*
X25066Y-50119D02*
X25294Y-50119D01*
X25180Y-50519D02*
X25180Y-50119D01*
X25427Y-50310D02*
X25561Y-50310D01*
X25618Y-50519D02*
X25427Y-50519D01*
X25427Y-50119D01*
X25618Y-50119D01*
X26018Y-50519D02*
X25885Y-50329D01*
X25789Y-50519D02*
X25789Y-50119D01*
X25942Y-50119D01*
X25980Y-50138D01*
X25999Y-50157D01*
X26018Y-50195D01*
X26018Y-50252D01*
X25999Y-50290D01*
X25980Y-50310D01*
X25942Y-50329D01*
X25789Y-50329D01*
X26189Y-50519D02*
X26189Y-50119D01*
X26323Y-50405D01*
X26456Y-50119D01*
X26456Y-50519D01*
X26627Y-50157D02*
X26646Y-50138D01*
X26685Y-50119D01*
X26780Y-50119D01*
X26818Y-50138D01*
X26837Y-50157D01*
X26856Y-50195D01*
X26856Y-50233D01*
X26837Y-50290D01*
X26608Y-50519D01*
X26856Y-50519D01*
X21097Y-50119D02*
X21326Y-50119D01*
X21211Y-50519D02*
X21211Y-50119D01*
X21459Y-50310D02*
X21592Y-50310D01*
X21649Y-50519D02*
X21459Y-50519D01*
X21459Y-50119D01*
X21649Y-50119D01*
X22049Y-50519D02*
X21916Y-50329D01*
X21821Y-50519D02*
X21821Y-50119D01*
X21973Y-50119D01*
X22011Y-50138D01*
X22030Y-50157D01*
X22049Y-50195D01*
X22049Y-50252D01*
X22030Y-50290D01*
X22011Y-50310D01*
X21973Y-50329D01*
X21821Y-50329D01*
X22221Y-50519D02*
X22221Y-50119D01*
X22354Y-50405D01*
X22488Y-50119D01*
X22488Y-50519D01*
X22888Y-50519D02*
X22659Y-50519D01*
X22773Y-50519D02*
X22773Y-50119D01*
X22735Y-50176D01*
X22697Y-50214D01*
X22659Y-50233D01*
X20485Y-29430D02*
X20542Y-29449D01*
X20638Y-29449D01*
X20676Y-29430D01*
X20695Y-29411D01*
X20714Y-29373D01*
X20714Y-29335D01*
X20695Y-29296D01*
X20676Y-29277D01*
X20638Y-29258D01*
X20561Y-29239D01*
X20523Y-29220D01*
X20504Y-29201D01*
X20485Y-29163D01*
X20485Y-29125D01*
X20504Y-29087D01*
X20523Y-29068D01*
X20561Y-29049D01*
X20657Y-29049D01*
X20714Y-29068D01*
X20847Y-29182D02*
X20942Y-29449D01*
X21038Y-29182D02*
X20942Y-29449D01*
X20904Y-29544D01*
X20885Y-29563D01*
X20847Y-29582D01*
X21190Y-29182D02*
X21190Y-29449D01*
X21190Y-29220D02*
X21209Y-29201D01*
X21247Y-29182D01*
X21304Y-29182D01*
X21342Y-29201D01*
X21361Y-29239D01*
X21361Y-29449D01*
X21723Y-29430D02*
X21685Y-29449D01*
X21609Y-29449D01*
X21571Y-29430D01*
X21552Y-29411D01*
X21533Y-29373D01*
X21533Y-29258D01*
X21552Y-29220D01*
X21571Y-29201D01*
X21609Y-29182D01*
X21685Y-29182D01*
X21723Y-29201D01*
X21895Y-29449D02*
X21895Y-29049D01*
X22066Y-29449D02*
X22066Y-29239D01*
X22047Y-29201D01*
X22009Y-29182D01*
X21952Y-29182D01*
X21914Y-29201D01*
X21895Y-29220D01*
X22257Y-29449D02*
X22257Y-29182D01*
X22257Y-29258D02*
X22276Y-29220D01*
X22295Y-29201D01*
X22333Y-29182D01*
X22371Y-29182D01*
X22561Y-29449D02*
X22523Y-29430D01*
X22504Y-29411D01*
X22485Y-29373D01*
X22485Y-29258D01*
X22504Y-29220D01*
X22523Y-29201D01*
X22561Y-29182D01*
X22618Y-29182D01*
X22657Y-29201D01*
X22676Y-29220D01*
X22695Y-29258D01*
X22695Y-29373D01*
X22676Y-29411D01*
X22657Y-29430D01*
X22618Y-29449D01*
X22561Y-29449D01*
X23171Y-29449D02*
X23171Y-29049D01*
X23323Y-29049D01*
X23361Y-29068D01*
X23380Y-29087D01*
X23399Y-29125D01*
X23399Y-29182D01*
X23380Y-29220D01*
X23361Y-29239D01*
X23323Y-29258D01*
X23171Y-29258D01*
X23628Y-29449D02*
X23590Y-29430D01*
X23571Y-29411D01*
X23552Y-29373D01*
X23552Y-29258D01*
X23571Y-29220D01*
X23590Y-29201D01*
X23628Y-29182D01*
X23685Y-29182D01*
X23723Y-29201D01*
X23742Y-29220D01*
X23761Y-29258D01*
X23761Y-29373D01*
X23742Y-29411D01*
X23723Y-29430D01*
X23685Y-29449D01*
X23628Y-29449D01*
X23895Y-29182D02*
X23971Y-29449D01*
X24047Y-29258D01*
X24123Y-29449D01*
X24199Y-29182D01*
X24504Y-29430D02*
X24466Y-29449D01*
X24390Y-29449D01*
X24352Y-29430D01*
X24333Y-29392D01*
X24333Y-29239D01*
X24352Y-29201D01*
X24390Y-29182D01*
X24466Y-29182D01*
X24504Y-29201D01*
X24523Y-29239D01*
X24523Y-29277D01*
X24333Y-29315D01*
X24695Y-29449D02*
X24695Y-29182D01*
X24695Y-29258D02*
X24714Y-29220D01*
X24733Y-29201D01*
X24771Y-29182D01*
X24809Y-29182D01*
X25476Y-29449D02*
X25342Y-29258D01*
X25247Y-29449D02*
X25247Y-29049D01*
X25399Y-29049D01*
X25438Y-29068D01*
X25457Y-29087D01*
X25476Y-29125D01*
X25476Y-29182D01*
X25457Y-29220D01*
X25438Y-29239D01*
X25399Y-29258D01*
X25247Y-29258D01*
X25799Y-29430D02*
X25761Y-29449D01*
X25685Y-29449D01*
X25647Y-29430D01*
X25628Y-29392D01*
X25628Y-29239D01*
X25647Y-29201D01*
X25685Y-29182D01*
X25761Y-29182D01*
X25799Y-29201D01*
X25818Y-29239D01*
X25818Y-29277D01*
X25628Y-29315D01*
X25952Y-29182D02*
X26047Y-29449D01*
X26142Y-29182D01*
X26295Y-29411D02*
X26314Y-29430D01*
X26295Y-29449D01*
X26276Y-29430D01*
X26295Y-29411D01*
X26295Y-29449D01*
X26771Y-29335D02*
X26961Y-29335D01*
X26733Y-29449D02*
X26866Y-29049D01*
X26999Y-29449D01*
X20618Y-30241D02*
X20599Y-30222D01*
X20561Y-30165D01*
X20542Y-30127D01*
X20523Y-30070D01*
X20504Y-29975D01*
X20504Y-29898D01*
X20523Y-29803D01*
X20542Y-29746D01*
X20561Y-29708D01*
X20599Y-29651D01*
X20618Y-29632D01*
X20942Y-30070D02*
X20904Y-30089D01*
X20828Y-30089D01*
X20790Y-30070D01*
X20771Y-30051D01*
X20752Y-30013D01*
X20752Y-29898D01*
X20771Y-29860D01*
X20790Y-29841D01*
X20828Y-29822D01*
X20904Y-29822D01*
X20942Y-29841D01*
X21076Y-30241D02*
X21095Y-30222D01*
X21133Y-30165D01*
X21152Y-30127D01*
X21171Y-30070D01*
X21190Y-29975D01*
X21190Y-29898D01*
X21171Y-29803D01*
X21152Y-29746D01*
X21133Y-29708D01*
X21095Y-29651D01*
X21076Y-29632D01*
X21666Y-29727D02*
X21685Y-29708D01*
X21723Y-29689D01*
X21818Y-29689D01*
X21857Y-29708D01*
X21876Y-29727D01*
X21895Y-29765D01*
X21895Y-29803D01*
X21876Y-29860D01*
X21647Y-30089D01*
X21895Y-30089D01*
X22142Y-29689D02*
X22180Y-29689D01*
X22218Y-29708D01*
X22238Y-29727D01*
X22257Y-29765D01*
X22276Y-29841D01*
X22276Y-29936D01*
X22257Y-30013D01*
X22238Y-30051D01*
X22218Y-30070D01*
X22180Y-30089D01*
X22142Y-30089D01*
X22104Y-30070D01*
X22085Y-30051D01*
X22066Y-30013D01*
X22047Y-29936D01*
X22047Y-29841D01*
X22066Y-29765D01*
X22085Y-29727D01*
X22104Y-29708D01*
X22142Y-29689D01*
X22657Y-30089D02*
X22428Y-30089D01*
X22542Y-30089D02*
X22542Y-29689D01*
X22504Y-29746D01*
X22466Y-29784D01*
X22428Y-29803D01*
X22999Y-29822D02*
X22999Y-30089D01*
X22904Y-29670D02*
X22809Y-29955D01*
X23057Y-29955D01*
X23514Y-30089D02*
X23514Y-29689D01*
X23514Y-29841D02*
X23552Y-29822D01*
X23628Y-29822D01*
X23666Y-29841D01*
X23685Y-29860D01*
X23704Y-29898D01*
X23704Y-30013D01*
X23685Y-30051D01*
X23666Y-30070D01*
X23628Y-30089D01*
X23552Y-30089D01*
X23514Y-30070D01*
X23838Y-29822D02*
X23933Y-30089D01*
X24028Y-29822D02*
X23933Y-30089D01*
X23895Y-30184D01*
X23876Y-30203D01*
X23838Y-30222D01*
X24447Y-29689D02*
X24542Y-30089D01*
X24618Y-29803D01*
X24695Y-30089D01*
X24790Y-29689D01*
X25114Y-30089D02*
X25114Y-29879D01*
X25095Y-29841D01*
X25057Y-29822D01*
X24980Y-29822D01*
X24942Y-29841D01*
X25114Y-30070D02*
X25076Y-30089D01*
X24980Y-30089D01*
X24942Y-30070D01*
X24923Y-30032D01*
X24923Y-29994D01*
X24942Y-29955D01*
X24980Y-29936D01*
X25076Y-29936D01*
X25114Y-29917D01*
X25266Y-29822D02*
X25361Y-30089D01*
X25457Y-29822D02*
X25361Y-30089D01*
X25323Y-30184D01*
X25304Y-30203D01*
X25266Y-30222D01*
X25609Y-29822D02*
X25609Y-30089D01*
X25609Y-29860D02*
X25628Y-29841D01*
X25666Y-29822D01*
X25723Y-29822D01*
X25761Y-29841D01*
X25780Y-29879D01*
X25780Y-30089D01*
X26123Y-30070D02*
X26085Y-30089D01*
X26009Y-30089D01*
X25971Y-30070D01*
X25952Y-30032D01*
X25952Y-29879D01*
X25971Y-29841D01*
X26009Y-29822D01*
X26085Y-29822D01*
X26123Y-29841D01*
X26142Y-29879D01*
X26142Y-29917D01*
X25952Y-29955D01*
X26828Y-29708D02*
X26790Y-29689D01*
X26733Y-29689D01*
X26676Y-29708D01*
X26638Y-29746D01*
X26618Y-29784D01*
X26599Y-29860D01*
X26599Y-29917D01*
X26618Y-29994D01*
X26638Y-30032D01*
X26676Y-30070D01*
X26733Y-30089D01*
X26771Y-30089D01*
X26828Y-30070D01*
X26847Y-30051D01*
X26847Y-29917D01*
X26771Y-29917D01*
X27018Y-30089D02*
X27018Y-29822D01*
X27018Y-29898D02*
X27038Y-29860D01*
X27057Y-29841D01*
X27095Y-29822D01*
X27133Y-29822D01*
X27438Y-30089D02*
X27438Y-29879D01*
X27418Y-29841D01*
X27380Y-29822D01*
X27304Y-29822D01*
X27266Y-29841D01*
X27438Y-30070D02*
X27399Y-30089D01*
X27304Y-30089D01*
X27266Y-30070D01*
X27247Y-30032D01*
X27247Y-29994D01*
X27266Y-29955D01*
X27304Y-29936D01*
X27399Y-29936D01*
X27438Y-29917D01*
X27628Y-30089D02*
X27628Y-29822D01*
X27628Y-29860D02*
X27647Y-29841D01*
X27685Y-29822D01*
X27742Y-29822D01*
X27780Y-29841D01*
X27799Y-29879D01*
X27799Y-30089D01*
X27799Y-29879D02*
X27818Y-29841D01*
X27857Y-29822D01*
X27914Y-29822D01*
X27952Y-29841D01*
X27971Y-29879D01*
X27971Y-30089D01*
X28218Y-30089D02*
X28180Y-30070D01*
X28161Y-30032D01*
X28161Y-29689D01*
X28371Y-30089D02*
X28371Y-29822D01*
X28371Y-29689D02*
X28352Y-29708D01*
X28371Y-29727D01*
X28390Y-29708D01*
X28371Y-29689D01*
X28371Y-29727D01*
X28733Y-30070D02*
X28695Y-30089D01*
X28618Y-30089D01*
X28580Y-30070D01*
X28561Y-30051D01*
X28542Y-30013D01*
X28542Y-29898D01*
X28561Y-29860D01*
X28580Y-29841D01*
X28618Y-29822D01*
X28695Y-29822D01*
X28733Y-29841D01*
X28904Y-30089D02*
X28904Y-29689D01*
X29076Y-30089D02*
X29076Y-29879D01*
X29057Y-29841D01*
X29018Y-29822D01*
X28961Y-29822D01*
X28923Y-29841D01*
X28904Y-29860D01*
X20485Y-30615D02*
X20676Y-30615D01*
X20447Y-30729D02*
X20580Y-30329D01*
X20714Y-30729D01*
X20904Y-30729D02*
X20866Y-30710D01*
X20847Y-30672D01*
X20847Y-30329D01*
X21114Y-30729D02*
X21076Y-30710D01*
X21057Y-30672D01*
X21057Y-30329D01*
X21799Y-30729D02*
X21666Y-30538D01*
X21571Y-30729D02*
X21571Y-30329D01*
X21723Y-30329D01*
X21761Y-30348D01*
X21780Y-30367D01*
X21799Y-30405D01*
X21799Y-30462D01*
X21780Y-30500D01*
X21761Y-30519D01*
X21723Y-30538D01*
X21571Y-30538D01*
X21971Y-30729D02*
X21971Y-30462D01*
X21971Y-30329D02*
X21952Y-30348D01*
X21971Y-30367D01*
X21990Y-30348D01*
X21971Y-30329D01*
X21971Y-30367D01*
X22333Y-30462D02*
X22333Y-30786D01*
X22314Y-30824D01*
X22295Y-30843D01*
X22257Y-30862D01*
X22199Y-30862D01*
X22161Y-30843D01*
X22333Y-30710D02*
X22295Y-30729D01*
X22218Y-30729D01*
X22180Y-30710D01*
X22161Y-30691D01*
X22142Y-30653D01*
X22142Y-30538D01*
X22161Y-30500D01*
X22180Y-30481D01*
X22218Y-30462D01*
X22295Y-30462D01*
X22333Y-30481D01*
X22523Y-30729D02*
X22523Y-30329D01*
X22695Y-30729D02*
X22695Y-30519D01*
X22676Y-30481D01*
X22638Y-30462D01*
X22580Y-30462D01*
X22542Y-30481D01*
X22523Y-30500D01*
X22828Y-30462D02*
X22980Y-30462D01*
X22885Y-30329D02*
X22885Y-30672D01*
X22904Y-30710D01*
X22942Y-30729D01*
X22980Y-30729D01*
X23095Y-30710D02*
X23133Y-30729D01*
X23209Y-30729D01*
X23247Y-30710D01*
X23266Y-30672D01*
X23266Y-30653D01*
X23247Y-30615D01*
X23209Y-30595D01*
X23152Y-30595D01*
X23114Y-30576D01*
X23095Y-30538D01*
X23095Y-30519D01*
X23114Y-30481D01*
X23152Y-30462D01*
X23209Y-30462D01*
X23247Y-30481D01*
X23971Y-30729D02*
X23838Y-30538D01*
X23742Y-30729D02*
X23742Y-30329D01*
X23895Y-30329D01*
X23933Y-30348D01*
X23952Y-30367D01*
X23971Y-30405D01*
X23971Y-30462D01*
X23952Y-30500D01*
X23933Y-30519D01*
X23895Y-30538D01*
X23742Y-30538D01*
X24295Y-30710D02*
X24257Y-30729D01*
X24180Y-30729D01*
X24142Y-30710D01*
X24123Y-30672D01*
X24123Y-30519D01*
X24142Y-30481D01*
X24180Y-30462D01*
X24257Y-30462D01*
X24295Y-30481D01*
X24314Y-30519D01*
X24314Y-30557D01*
X24123Y-30595D01*
X24466Y-30710D02*
X24504Y-30729D01*
X24580Y-30729D01*
X24618Y-30710D01*
X24638Y-30672D01*
X24638Y-30653D01*
X24618Y-30615D01*
X24580Y-30595D01*
X24523Y-30595D01*
X24485Y-30576D01*
X24466Y-30538D01*
X24466Y-30519D01*
X24485Y-30481D01*
X24523Y-30462D01*
X24580Y-30462D01*
X24618Y-30481D01*
X24961Y-30710D02*
X24923Y-30729D01*
X24847Y-30729D01*
X24809Y-30710D01*
X24790Y-30672D01*
X24790Y-30519D01*
X24809Y-30481D01*
X24847Y-30462D01*
X24923Y-30462D01*
X24961Y-30481D01*
X24980Y-30519D01*
X24980Y-30557D01*
X24790Y-30595D01*
X25152Y-30729D02*
X25152Y-30462D01*
X25152Y-30538D02*
X25171Y-30500D01*
X25190Y-30481D01*
X25228Y-30462D01*
X25266Y-30462D01*
X25361Y-30462D02*
X25457Y-30729D01*
X25552Y-30462D01*
X25857Y-30710D02*
X25818Y-30729D01*
X25742Y-30729D01*
X25704Y-30710D01*
X25685Y-30672D01*
X25685Y-30519D01*
X25704Y-30481D01*
X25742Y-30462D01*
X25818Y-30462D01*
X25857Y-30481D01*
X25876Y-30519D01*
X25876Y-30557D01*
X25685Y-30595D01*
X26218Y-30729D02*
X26218Y-30329D01*
X26218Y-30710D02*
X26180Y-30729D01*
X26104Y-30729D01*
X26066Y-30710D01*
X26047Y-30691D01*
X26028Y-30653D01*
X26028Y-30538D01*
X26047Y-30500D01*
X26066Y-30481D01*
X26104Y-30462D01*
X26180Y-30462D01*
X26218Y-30481D01*
X20485Y-31007D02*
X20504Y-30988D01*
X20542Y-30969D01*
X20638Y-30969D01*
X20676Y-30988D01*
X20695Y-31007D01*
X20714Y-31045D01*
X20714Y-31083D01*
X20695Y-31140D01*
X20466Y-31369D01*
X20714Y-31369D01*
X21076Y-30969D02*
X20885Y-30969D01*
X20866Y-31159D01*
X20885Y-31140D01*
X20923Y-31121D01*
X21018Y-31121D01*
X21057Y-31140D01*
X21076Y-31159D01*
X21095Y-31197D01*
X21095Y-31293D01*
X21076Y-31331D01*
X21057Y-31350D01*
X21018Y-31369D01*
X20923Y-31369D01*
X20885Y-31350D01*
X20866Y-31331D01*
X21399Y-31159D02*
X21266Y-31159D01*
X21266Y-31369D02*
X21266Y-30969D01*
X21457Y-30969D01*
X21761Y-31350D02*
X21723Y-31369D01*
X21647Y-31369D01*
X21609Y-31350D01*
X21590Y-31312D01*
X21590Y-31159D01*
X21609Y-31121D01*
X21647Y-31102D01*
X21723Y-31102D01*
X21761Y-31121D01*
X21780Y-31159D01*
X21780Y-31197D01*
X21590Y-31235D01*
X21952Y-31369D02*
X21952Y-30969D01*
X21952Y-31121D02*
X21990Y-31102D01*
X22066Y-31102D01*
X22104Y-31121D01*
X22123Y-31140D01*
X22142Y-31178D01*
X22142Y-31293D01*
X22123Y-31331D01*
X22104Y-31350D01*
X22066Y-31369D01*
X21990Y-31369D01*
X21952Y-31350D01*
X22295Y-31007D02*
X22314Y-30988D01*
X22352Y-30969D01*
X22447Y-30969D01*
X22485Y-30988D01*
X22504Y-31007D01*
X22523Y-31045D01*
X22523Y-31083D01*
X22504Y-31140D01*
X22276Y-31369D01*
X22523Y-31369D01*
X22771Y-30969D02*
X22809Y-30969D01*
X22847Y-30988D01*
X22866Y-31007D01*
X22885Y-31045D01*
X22904Y-31121D01*
X22904Y-31216D01*
X22885Y-31293D01*
X22866Y-31331D01*
X22847Y-31350D01*
X22809Y-31369D01*
X22771Y-31369D01*
X22733Y-31350D01*
X22714Y-31331D01*
X22695Y-31293D01*
X22676Y-31216D01*
X22676Y-31121D01*
X22695Y-31045D01*
X22714Y-31007D01*
X22733Y-30988D01*
X22771Y-30969D01*
X23285Y-31369D02*
X23057Y-31369D01*
X23171Y-31369D02*
X23171Y-30969D01*
X23133Y-31026D01*
X23095Y-31064D01*
X23057Y-31083D01*
X23628Y-31102D02*
X23628Y-31369D01*
X23533Y-30950D02*
X23438Y-31235D01*
X23685Y-31235D01*
X20189Y-41404D02*
X20189Y-41213D01*
X20589Y-41213D01*
X20189Y-41537D02*
X20589Y-41537D01*
X20589Y-41689D01*
X20570Y-41727D01*
X20551Y-41746D01*
X20512Y-41766D01*
X20455Y-41766D01*
X20417Y-41746D01*
X20398Y-41727D01*
X20379Y-41689D01*
X20379Y-41537D01*
X20589Y-41899D02*
X20189Y-41994D01*
X20474Y-42070D01*
X20189Y-42146D01*
X20589Y-42242D01*
X20189Y-42623D02*
X20379Y-42489D01*
X20189Y-42394D02*
X20589Y-42394D01*
X20589Y-42546D01*
X20570Y-42585D01*
X20551Y-42604D01*
X20512Y-42623D01*
X20455Y-42623D01*
X20417Y-42604D01*
X20398Y-42585D01*
X20379Y-42546D01*
X20379Y-42394D01*
X20151Y-42699D02*
X20151Y-43004D01*
X20208Y-43080D02*
X20189Y-43137D01*
X20189Y-43232D01*
X20208Y-43270D01*
X20227Y-43289D01*
X20265Y-43308D01*
X20303Y-43308D01*
X20341Y-43289D01*
X20360Y-43270D01*
X20379Y-43232D01*
X20398Y-43156D01*
X20417Y-43118D01*
X20436Y-43099D01*
X20474Y-43080D01*
X20512Y-43080D01*
X20551Y-43099D01*
X20570Y-43118D01*
X20589Y-43156D01*
X20589Y-43251D01*
X20570Y-43308D01*
X20589Y-43442D02*
X20189Y-43537D01*
X20474Y-43613D01*
X20189Y-43689D01*
X20589Y-43785D01*
X20017Y-33879D02*
X20036Y-33860D01*
X20093Y-33822D01*
X20131Y-33803D01*
X20188Y-33784D01*
X20283Y-33764D01*
X20359Y-33764D01*
X20455Y-33784D01*
X20512Y-33803D01*
X20550Y-33822D01*
X20607Y-33860D01*
X20626Y-33879D01*
X20321Y-34031D02*
X20321Y-34336D01*
X20017Y-34488D02*
X20036Y-34507D01*
X20093Y-34545D01*
X20131Y-34564D01*
X20188Y-34584D01*
X20283Y-34603D01*
X20359Y-34603D01*
X20455Y-34584D01*
X20512Y-34564D01*
X20550Y-34545D01*
X20607Y-34507D01*
X20626Y-34488D01*
X20569Y-34755D02*
X20569Y-35022D01*
X20169Y-34850D01*
X20207Y-35174D02*
X20188Y-35193D01*
X20169Y-35174D01*
X20188Y-35155D01*
X20207Y-35174D01*
X20169Y-35174D01*
X20531Y-35345D02*
X20550Y-35364D01*
X20569Y-35403D01*
X20569Y-35498D01*
X20550Y-35536D01*
X20531Y-35555D01*
X20493Y-35574D01*
X20455Y-35574D01*
X20398Y-35555D01*
X20169Y-35326D01*
X20169Y-35574D01*
X20569Y-35688D02*
X20169Y-35822D01*
X20569Y-35955D01*
X20131Y-35993D02*
X20131Y-36298D01*
X20378Y-36526D02*
X20359Y-36584D01*
X20340Y-36603D01*
X20302Y-36622D01*
X20245Y-36622D01*
X20207Y-36603D01*
X20188Y-36584D01*
X20169Y-36545D01*
X20169Y-36393D01*
X20569Y-36393D01*
X20569Y-36526D01*
X20550Y-36564D01*
X20531Y-36584D01*
X20493Y-36603D01*
X20455Y-36603D01*
X20417Y-36584D01*
X20398Y-36564D01*
X20378Y-36526D01*
X20378Y-36393D01*
X20283Y-36774D02*
X20283Y-36964D01*
X20169Y-36736D02*
X20569Y-36869D01*
X20169Y-37003D01*
X20569Y-37079D02*
X20569Y-37307D01*
X20169Y-37193D02*
X20569Y-37193D01*
X20169Y-37650D02*
X20169Y-37422D01*
X20169Y-37536D02*
X20569Y-37536D01*
X20512Y-37498D01*
X20474Y-37460D01*
X20455Y-37422D01*
X20017Y-37936D02*
X20036Y-37917D01*
X20093Y-37879D01*
X20131Y-37860D01*
X20188Y-37841D01*
X20283Y-37822D01*
X20359Y-37822D01*
X20455Y-37841D01*
X20512Y-37860D01*
X20550Y-37879D01*
X20607Y-37917D01*
X20626Y-37936D01*
X20321Y-38088D02*
X20321Y-38393D01*
X20169Y-38241D02*
X20474Y-38241D01*
X20017Y-38545D02*
X20036Y-38564D01*
X20093Y-38603D01*
X20131Y-38622D01*
X20188Y-38641D01*
X20283Y-38660D01*
X20359Y-38660D01*
X20455Y-38641D01*
X20512Y-38622D01*
X20550Y-38603D01*
X20607Y-38564D01*
X20626Y-38545D01*
X58774Y-51879D02*
X58755Y-51898D01*
X58698Y-51936D01*
X58659Y-51956D01*
X58602Y-51975D01*
X58507Y-51994D01*
X58431Y-51994D01*
X58336Y-51975D01*
X58279Y-51956D01*
X58240Y-51936D01*
X58183Y-51898D01*
X58164Y-51879D01*
X58469Y-51727D02*
X58469Y-51422D01*
X58774Y-51270D02*
X58755Y-51251D01*
X58698Y-51213D01*
X58659Y-51194D01*
X58602Y-51175D01*
X58507Y-51156D01*
X58431Y-51156D01*
X58336Y-51175D01*
X58279Y-51194D01*
X58240Y-51213D01*
X58183Y-51251D01*
X58164Y-51270D01*
X58621Y-50756D02*
X58621Y-50984D01*
X58621Y-50870D02*
X58221Y-50870D01*
X58279Y-50908D01*
X58317Y-50946D01*
X58336Y-50984D01*
X58259Y-50603D02*
X58240Y-50584D01*
X58221Y-50546D01*
X58221Y-50451D01*
X58240Y-50413D01*
X58259Y-50394D01*
X58298Y-50375D01*
X58336Y-50375D01*
X58393Y-50394D01*
X58621Y-50622D01*
X58621Y-50375D01*
X58221Y-50260D02*
X58621Y-50127D01*
X58221Y-49994D01*
X58659Y-49956D02*
X58659Y-49651D01*
X58412Y-49422D02*
X58431Y-49365D01*
X58450Y-49346D01*
X58488Y-49327D01*
X58545Y-49327D01*
X58583Y-49346D01*
X58602Y-49365D01*
X58621Y-49403D01*
X58621Y-49556D01*
X58221Y-49556D01*
X58221Y-49422D01*
X58240Y-49384D01*
X58259Y-49365D01*
X58298Y-49346D01*
X58336Y-49346D01*
X58374Y-49365D01*
X58393Y-49384D01*
X58412Y-49422D01*
X58412Y-49556D01*
X58507Y-49175D02*
X58507Y-48984D01*
X58621Y-49213D02*
X58221Y-49079D01*
X58621Y-48946D01*
X58221Y-48870D02*
X58221Y-48641D01*
X58621Y-48756D02*
X58221Y-48756D01*
X58621Y-48298D02*
X58621Y-48527D01*
X58621Y-48413D02*
X58221Y-48413D01*
X58279Y-48451D01*
X58317Y-48489D01*
X58336Y-48527D01*
X58774Y-48013D02*
X58755Y-48032D01*
X58698Y-48070D01*
X58659Y-48089D01*
X58602Y-48108D01*
X58507Y-48127D01*
X58431Y-48127D01*
X58336Y-48108D01*
X58279Y-48089D01*
X58240Y-48070D01*
X58183Y-48032D01*
X58164Y-48013D01*
X58469Y-47860D02*
X58469Y-47556D01*
X58621Y-47708D02*
X58317Y-47708D01*
X58774Y-47403D02*
X58755Y-47384D01*
X58698Y-47346D01*
X58659Y-47327D01*
X58602Y-47308D01*
X58507Y-47289D01*
X58431Y-47289D01*
X58336Y-47308D01*
X58279Y-47327D01*
X58240Y-47346D01*
X58183Y-47384D01*
X58164Y-47403D01*
X58774Y-46769D02*
X58755Y-46788D01*
X58698Y-46826D01*
X58659Y-46845D01*
X58602Y-46864D01*
X58507Y-46883D01*
X58431Y-46883D01*
X58336Y-46864D01*
X58279Y-46845D01*
X58240Y-46826D01*
X58183Y-46788D01*
X58164Y-46769D01*
X58469Y-46617D02*
X58469Y-46312D01*
X58774Y-46160D02*
X58755Y-46141D01*
X58698Y-46102D01*
X58659Y-46083D01*
X58602Y-46064D01*
X58507Y-46045D01*
X58431Y-46045D01*
X58336Y-46064D01*
X58279Y-46083D01*
X58240Y-46102D01*
X58183Y-46141D01*
X58164Y-46160D01*
X58621Y-45645D02*
X58621Y-45874D01*
X58621Y-45760D02*
X58221Y-45760D01*
X58279Y-45798D01*
X58317Y-45836D01*
X58336Y-45874D01*
X58259Y-45493D02*
X58240Y-45474D01*
X58221Y-45436D01*
X58221Y-45341D01*
X58240Y-45302D01*
X58259Y-45283D01*
X58298Y-45264D01*
X58336Y-45264D01*
X58393Y-45283D01*
X58621Y-45512D01*
X58621Y-45264D01*
X58221Y-45150D02*
X58621Y-45017D01*
X58221Y-44883D01*
X58659Y-44845D02*
X58659Y-44541D01*
X58412Y-44312D02*
X58431Y-44255D01*
X58450Y-44236D01*
X58488Y-44217D01*
X58545Y-44217D01*
X58583Y-44236D01*
X58602Y-44255D01*
X58621Y-44293D01*
X58621Y-44445D01*
X58221Y-44445D01*
X58221Y-44312D01*
X58240Y-44274D01*
X58259Y-44255D01*
X58298Y-44236D01*
X58336Y-44236D01*
X58374Y-44255D01*
X58393Y-44274D01*
X58412Y-44312D01*
X58412Y-44445D01*
X58507Y-44064D02*
X58507Y-43874D01*
X58621Y-44102D02*
X58221Y-43969D01*
X58621Y-43836D01*
X58221Y-43760D02*
X58221Y-43531D01*
X58621Y-43645D02*
X58221Y-43645D01*
X58259Y-43417D02*
X58240Y-43398D01*
X58221Y-43360D01*
X58221Y-43264D01*
X58240Y-43226D01*
X58259Y-43207D01*
X58298Y-43188D01*
X58336Y-43188D01*
X58393Y-43207D01*
X58621Y-43436D01*
X58621Y-43188D01*
X58774Y-42902D02*
X58755Y-42921D01*
X58698Y-42960D01*
X58659Y-42979D01*
X58602Y-42998D01*
X58507Y-43017D01*
X58431Y-43017D01*
X58336Y-42998D01*
X58279Y-42979D01*
X58240Y-42960D01*
X58183Y-42921D01*
X58164Y-42902D01*
X58469Y-42750D02*
X58469Y-42445D01*
X58621Y-42598D02*
X58317Y-42598D01*
X58774Y-42293D02*
X58755Y-42274D01*
X58698Y-42236D01*
X58659Y-42217D01*
X58602Y-42198D01*
X58507Y-42179D01*
X58431Y-42179D01*
X58336Y-42198D01*
X58279Y-42217D01*
X58240Y-42236D01*
X58183Y-42274D01*
X58164Y-42293D01*
X58665Y-40522D02*
X58265Y-40522D01*
X58550Y-40388D01*
X58265Y-40255D01*
X58665Y-40255D01*
X58665Y-40065D02*
X58265Y-40065D01*
X58265Y-39912D01*
X58284Y-39874D01*
X58303Y-39855D01*
X58341Y-39836D01*
X58398Y-39836D01*
X58436Y-39855D01*
X58455Y-39874D01*
X58474Y-39912D01*
X58474Y-40065D01*
X58265Y-39703D02*
X58665Y-39608D01*
X58379Y-39531D01*
X58665Y-39455D01*
X58265Y-39360D01*
X58665Y-38979D02*
X58474Y-39112D01*
X58665Y-39208D02*
X58265Y-39208D01*
X58265Y-39055D01*
X58284Y-39017D01*
X58303Y-38998D01*
X58341Y-38979D01*
X58398Y-38979D01*
X58436Y-38998D01*
X58455Y-39017D01*
X58474Y-39055D01*
X58474Y-39208D01*
X58703Y-38903D02*
X58703Y-38598D01*
X58646Y-38522D02*
X58665Y-38465D01*
X58665Y-38369D01*
X58646Y-38331D01*
X58627Y-38312D01*
X58589Y-38293D01*
X58550Y-38293D01*
X58512Y-38312D01*
X58493Y-38331D01*
X58474Y-38369D01*
X58455Y-38446D01*
X58436Y-38484D01*
X58417Y-38503D01*
X58379Y-38522D01*
X58341Y-38522D01*
X58303Y-38503D01*
X58284Y-38484D01*
X58265Y-38446D01*
X58265Y-38350D01*
X58284Y-38293D01*
X58265Y-38160D02*
X58665Y-38065D01*
X58379Y-37988D01*
X58665Y-37912D01*
X58265Y-37817D01*
X58412Y-35107D02*
X58412Y-34973D01*
X58621Y-34916D02*
X58621Y-35107D01*
X58221Y-35107D01*
X58221Y-34916D01*
X58602Y-34764D02*
X58621Y-34707D01*
X58621Y-34612D01*
X58602Y-34573D01*
X58583Y-34554D01*
X58545Y-34535D01*
X58507Y-34535D01*
X58469Y-34554D01*
X58450Y-34573D01*
X58431Y-34612D01*
X58412Y-34688D01*
X58393Y-34726D01*
X58374Y-34745D01*
X58336Y-34764D01*
X58298Y-34764D01*
X58259Y-34745D01*
X58240Y-34726D01*
X58221Y-34688D01*
X58221Y-34593D01*
X58240Y-34535D01*
X58221Y-34421D02*
X58221Y-34193D01*
X58621Y-34307D02*
X58221Y-34307D01*
X58221Y-33983D02*
X58221Y-33907D01*
X58240Y-33869D01*
X58279Y-33831D01*
X58355Y-33812D01*
X58488Y-33812D01*
X58564Y-33831D01*
X58602Y-33869D01*
X58621Y-33907D01*
X58621Y-33983D01*
X58602Y-34021D01*
X58564Y-34059D01*
X58488Y-34078D01*
X58355Y-34078D01*
X58279Y-34059D01*
X58240Y-34021D01*
X58221Y-33983D01*
X58621Y-33640D02*
X58221Y-33640D01*
X58221Y-33488D01*
X58240Y-33450D01*
X58259Y-33431D01*
X58298Y-33412D01*
X58355Y-33412D01*
X58393Y-33431D01*
X58412Y-33450D01*
X58431Y-33488D01*
X58431Y-33640D01*
X58621Y-33031D02*
X58621Y-33259D01*
X58621Y-33145D02*
X58221Y-33145D01*
X58279Y-33183D01*
X58317Y-33221D01*
X58336Y-33259D01*
X58365Y-30178D02*
X58365Y-30044D01*
X58574Y-29987D02*
X58574Y-30178D01*
X58174Y-30178D01*
X58174Y-29987D01*
X58555Y-29835D02*
X58574Y-29778D01*
X58574Y-29682D01*
X58555Y-29644D01*
X58536Y-29625D01*
X58498Y-29606D01*
X58460Y-29606D01*
X58422Y-29625D01*
X58403Y-29644D01*
X58384Y-29682D01*
X58365Y-29759D01*
X58346Y-29797D01*
X58327Y-29816D01*
X58288Y-29835D01*
X58250Y-29835D01*
X58212Y-29816D01*
X58193Y-29797D01*
X58174Y-29759D01*
X58174Y-29663D01*
X58193Y-29606D01*
X58174Y-29492D02*
X58174Y-29263D01*
X58574Y-29378D02*
X58174Y-29378D01*
X58174Y-29054D02*
X58174Y-28978D01*
X58193Y-28940D01*
X58231Y-28901D01*
X58307Y-28882D01*
X58441Y-28882D01*
X58517Y-28901D01*
X58555Y-28940D01*
X58574Y-28978D01*
X58574Y-29054D01*
X58555Y-29092D01*
X58517Y-29130D01*
X58441Y-29149D01*
X58307Y-29149D01*
X58231Y-29130D01*
X58193Y-29092D01*
X58174Y-29054D01*
X58574Y-28711D02*
X58174Y-28711D01*
X58174Y-28559D01*
X58193Y-28521D01*
X58212Y-28501D01*
X58250Y-28482D01*
X58307Y-28482D01*
X58346Y-28501D01*
X58365Y-28521D01*
X58384Y-28559D01*
X58384Y-28711D01*
X58212Y-28330D02*
X58193Y-28311D01*
X58174Y-28273D01*
X58174Y-28178D01*
X58193Y-28140D01*
X58212Y-28121D01*
X58250Y-28101D01*
X58288Y-28101D01*
X58346Y-28121D01*
X58574Y-28349D01*
X58574Y-28101D01*
X26303Y-22751D02*
X26113Y-22751D01*
X26113Y-22351D01*
X26437Y-22751D02*
X26437Y-22351D01*
X26589Y-22351D01*
X26627Y-22370D01*
X26646Y-22389D01*
X26665Y-22428D01*
X26665Y-22485D01*
X26646Y-22523D01*
X26627Y-22542D01*
X26589Y-22561D01*
X26437Y-22561D01*
X26799Y-22351D02*
X26894Y-22751D01*
X26970Y-22466D01*
X27046Y-22751D01*
X27141Y-22351D01*
X27522Y-22751D02*
X27389Y-22561D01*
X27294Y-22751D02*
X27294Y-22351D01*
X27446Y-22351D01*
X27484Y-22370D01*
X27503Y-22389D01*
X27522Y-22428D01*
X27522Y-22485D01*
X27503Y-22523D01*
X27484Y-22542D01*
X27446Y-22561D01*
X27294Y-22561D01*
X27808Y-22904D02*
X27789Y-22885D01*
X27751Y-22828D01*
X27732Y-22789D01*
X27713Y-22732D01*
X27694Y-22637D01*
X27694Y-22561D01*
X27713Y-22466D01*
X27732Y-22408D01*
X27751Y-22370D01*
X27789Y-22313D01*
X27808Y-22294D01*
X27960Y-22599D02*
X28265Y-22599D01*
X28113Y-22751D02*
X28113Y-22447D01*
X28418Y-22904D02*
X28437Y-22885D01*
X28475Y-22828D01*
X28494Y-22789D01*
X28513Y-22732D01*
X28532Y-22637D01*
X28532Y-22561D01*
X28513Y-22466D01*
X28494Y-22408D01*
X28475Y-22370D01*
X28437Y-22313D01*
X28418Y-22294D01*
X32551Y-22842D02*
X32360Y-22842D01*
X32360Y-22442D01*
X32894Y-22461D02*
X32855Y-22442D01*
X32798Y-22442D01*
X32741Y-22461D01*
X32703Y-22499D01*
X32684Y-22537D01*
X32665Y-22613D01*
X32665Y-22670D01*
X32684Y-22747D01*
X32703Y-22785D01*
X32741Y-22823D01*
X32798Y-22842D01*
X32836Y-22842D01*
X32894Y-22823D01*
X32913Y-22804D01*
X32913Y-22670D01*
X32836Y-22670D01*
X33084Y-22842D02*
X33084Y-22442D01*
X33313Y-22842D01*
X33313Y-22442D01*
X33503Y-22842D02*
X33503Y-22442D01*
X33598Y-22442D01*
X33655Y-22461D01*
X33694Y-22499D01*
X33713Y-22537D01*
X33732Y-22613D01*
X33732Y-22670D01*
X33713Y-22747D01*
X33694Y-22785D01*
X33655Y-22823D01*
X33598Y-22842D01*
X33503Y-22842D01*
X34017Y-22994D02*
X33998Y-22975D01*
X33960Y-22918D01*
X33941Y-22880D01*
X33922Y-22823D01*
X33903Y-22728D01*
X33903Y-22651D01*
X33922Y-22556D01*
X33941Y-22499D01*
X33960Y-22461D01*
X33998Y-22404D01*
X34017Y-22385D01*
X34170Y-22689D02*
X34474Y-22689D01*
X34627Y-22994D02*
X34646Y-22975D01*
X34684Y-22918D01*
X34703Y-22880D01*
X34722Y-22823D01*
X34741Y-22728D01*
X34741Y-22651D01*
X34722Y-22556D01*
X34703Y-22499D01*
X34684Y-22461D01*
X34646Y-22404D01*
X34627Y-22385D01*
X49983Y-22885D02*
X49983Y-22485D01*
X50116Y-22771D01*
X50250Y-22485D01*
X50250Y-22885D01*
X50440Y-22885D02*
X50440Y-22485D01*
X50593Y-22485D01*
X50631Y-22504D01*
X50650Y-22523D01*
X50669Y-22561D01*
X50669Y-22619D01*
X50650Y-22657D01*
X50631Y-22676D01*
X50593Y-22695D01*
X50440Y-22695D01*
X50802Y-22485D02*
X50897Y-22885D01*
X50974Y-22599D01*
X51050Y-22885D01*
X51145Y-22485D01*
X51526Y-22885D02*
X51393Y-22695D01*
X51297Y-22885D02*
X51297Y-22485D01*
X51450Y-22485D01*
X51488Y-22504D01*
X51507Y-22523D01*
X51526Y-22561D01*
X51526Y-22619D01*
X51507Y-22657D01*
X51488Y-22676D01*
X51450Y-22695D01*
X51297Y-22695D01*
X51812Y-23038D02*
X51793Y-23019D01*
X51755Y-22961D01*
X51736Y-22923D01*
X51716Y-22866D01*
X51697Y-22771D01*
X51697Y-22695D01*
X51716Y-22599D01*
X51736Y-22542D01*
X51755Y-22504D01*
X51793Y-22447D01*
X51812Y-22428D01*
X51964Y-22733D02*
X52269Y-22733D01*
X52116Y-22885D02*
X52116Y-22580D01*
X52421Y-23038D02*
X52440Y-23019D01*
X52478Y-22961D01*
X52497Y-22923D01*
X52516Y-22866D01*
X52536Y-22771D01*
X52536Y-22695D01*
X52516Y-22599D01*
X52497Y-22542D01*
X52478Y-22504D01*
X52440Y-22447D01*
X52421Y-22428D01*
X44325Y-22842D02*
X44325Y-22442D01*
X44458Y-22728D01*
X44592Y-22442D01*
X44592Y-22842D01*
X44992Y-22461D02*
X44954Y-22442D01*
X44896Y-22442D01*
X44839Y-22461D01*
X44801Y-22499D01*
X44782Y-22537D01*
X44763Y-22613D01*
X44763Y-22670D01*
X44782Y-22747D01*
X44801Y-22785D01*
X44839Y-22823D01*
X44896Y-22842D01*
X44935Y-22842D01*
X44992Y-22823D01*
X45011Y-22804D01*
X45011Y-22670D01*
X44935Y-22670D01*
X45182Y-22842D02*
X45182Y-22442D01*
X45411Y-22842D01*
X45411Y-22442D01*
X45601Y-22842D02*
X45601Y-22442D01*
X45696Y-22442D01*
X45754Y-22461D01*
X45792Y-22499D01*
X45811Y-22537D01*
X45830Y-22613D01*
X45830Y-22670D01*
X45811Y-22747D01*
X45792Y-22785D01*
X45754Y-22823D01*
X45696Y-22842D01*
X45601Y-22842D01*
X46116Y-22994D02*
X46096Y-22975D01*
X46058Y-22918D01*
X46039Y-22880D01*
X46020Y-22823D01*
X46001Y-22728D01*
X46001Y-22651D01*
X46020Y-22556D01*
X46039Y-22499D01*
X46058Y-22461D01*
X46096Y-22404D01*
X46116Y-22385D01*
X46268Y-22689D02*
X46573Y-22689D01*
X46725Y-22994D02*
X46744Y-22975D01*
X46782Y-22918D01*
X46801Y-22880D01*
X46820Y-22823D01*
X46839Y-22728D01*
X46839Y-22651D01*
X46820Y-22556D01*
X46801Y-22499D01*
X46782Y-22461D01*
X46744Y-22404D01*
X46725Y-22385D01*
X45514Y-53292D02*
X45514Y-53616D01*
X45534Y-53654D01*
X45553Y-53673D01*
X45591Y-53692D01*
X45667Y-53692D01*
X45705Y-53673D01*
X45724Y-53654D01*
X45743Y-53616D01*
X45743Y-53292D01*
X45934Y-53692D02*
X45934Y-53292D01*
X46162Y-53692D01*
X46162Y-53292D01*
X46295Y-53292D02*
X46524Y-53292D01*
X46410Y-53692D02*
X46410Y-53292D01*
X46657Y-53483D02*
X46791Y-53483D01*
X46848Y-53692D02*
X46657Y-53692D01*
X46657Y-53292D01*
X46848Y-53292D01*
X47248Y-53692D02*
X47114Y-53502D01*
X47019Y-53692D02*
X47019Y-53292D01*
X47172Y-53292D01*
X47210Y-53311D01*
X47229Y-53330D01*
X47248Y-53368D01*
X47248Y-53426D01*
X47229Y-53464D01*
X47210Y-53483D01*
X47172Y-53502D01*
X47019Y-53502D01*
X47419Y-53692D02*
X47419Y-53292D01*
X47553Y-53578D01*
X47686Y-53292D01*
X47686Y-53692D01*
X47876Y-53692D02*
X47876Y-53292D01*
X48067Y-53692D02*
X48067Y-53292D01*
X48295Y-53692D01*
X48295Y-53292D01*
X48467Y-53578D02*
X48657Y-53578D01*
X48429Y-53692D02*
X48562Y-53292D01*
X48695Y-53692D01*
X48772Y-53292D02*
X49000Y-53292D01*
X48886Y-53692D02*
X48886Y-53292D01*
X49134Y-53483D02*
X49267Y-53483D01*
X49324Y-53692D02*
X49134Y-53692D01*
X49134Y-53292D01*
X49324Y-53292D01*
X49495Y-53692D02*
X49495Y-53292D01*
X49591Y-53292D01*
X49648Y-53311D01*
X49686Y-53349D01*
X49705Y-53388D01*
X49724Y-53464D01*
X49724Y-53521D01*
X49705Y-53597D01*
X49686Y-53635D01*
X49648Y-53673D01*
X49591Y-53692D01*
X49495Y-53692D01*
X45416Y-52229D02*
X45644Y-52229D01*
X45530Y-52629D02*
X45530Y-52229D01*
X45778Y-52420D02*
X45911Y-52420D01*
X45968Y-52629D02*
X45778Y-52629D01*
X45778Y-52229D01*
X45968Y-52229D01*
X46368Y-52629D02*
X46235Y-52439D01*
X46140Y-52629D02*
X46140Y-52229D01*
X46292Y-52229D01*
X46330Y-52248D01*
X46349Y-52267D01*
X46368Y-52305D01*
X46368Y-52363D01*
X46349Y-52401D01*
X46330Y-52420D01*
X46292Y-52439D01*
X46140Y-52439D01*
X46540Y-52629D02*
X46540Y-52229D01*
X46673Y-52515D01*
X46806Y-52229D01*
X46806Y-52629D01*
X46997Y-52629D02*
X46997Y-52229D01*
X47187Y-52629D02*
X47187Y-52229D01*
X47416Y-52629D01*
X47416Y-52229D01*
X47587Y-52515D02*
X47778Y-52515D01*
X47549Y-52629D02*
X47682Y-52229D01*
X47816Y-52629D01*
X47892Y-52229D02*
X48121Y-52229D01*
X48006Y-52629D02*
X48006Y-52229D01*
X48254Y-52420D02*
X48387Y-52420D01*
X48444Y-52629D02*
X48254Y-52629D01*
X48254Y-52229D01*
X48444Y-52229D01*
X48616Y-52629D02*
X48616Y-52229D01*
X48711Y-52229D01*
X48768Y-52248D01*
X48806Y-52286D01*
X48825Y-52325D01*
X48844Y-52401D01*
X48844Y-52458D01*
X48825Y-52534D01*
X48806Y-52572D01*
X48768Y-52610D01*
X48711Y-52629D01*
X48616Y-52629D01*
G54D12*
X19783Y-58956D02*
X58956Y-58956D01*
X19783Y-19783D02*
X58956Y-19783D01*
X58956Y-19783D02*
X58956Y-58956D01*
X19783Y-19783D02*
X19783Y-58956D01*
G54D13*
X44275Y-52405D02*
X44275Y-54405D01*
X44275Y-54405D02*
X45275Y-54405D01*
X45275Y-54405D02*
X45275Y-52405D01*
X45275Y-51405D02*
X45275Y-52405D01*
X45275Y-52405D02*
X44275Y-52405D01*
X45275Y-51405D02*
X44275Y-51405D01*
X44275Y-51405D02*
X44275Y-52405D01*
G54D10*
X20866Y-44881D02*
X25590Y-44881D01*
X20866Y-40157D02*
X25590Y-40157D01*
X25590Y-40157D02*
X25590Y-44881D01*
X20866Y-40157D02*
X20866Y-44881D01*
X20866Y-38582D02*
X25590Y-38582D01*
X20866Y-33858D02*
X25590Y-33858D01*
X25590Y-33858D02*
X25590Y-38582D01*
X20866Y-33858D02*
X20866Y-38582D01*
X57874Y-26771D02*
X53149Y-26771D01*
X57874Y-31496D02*
X53149Y-31496D01*
X53149Y-31496D02*
X53149Y-26771D01*
X57874Y-31496D02*
X57874Y-26771D01*
X57874Y-31889D02*
X53149Y-31889D01*
X57874Y-36614D02*
X53149Y-36614D01*
X53149Y-36614D02*
X53149Y-31889D01*
X57874Y-36614D02*
X57874Y-31889D01*
X57874Y-37007D02*
X53149Y-37007D01*
X57874Y-41732D02*
X53149Y-41732D01*
X53149Y-41732D02*
X53149Y-37007D01*
X57874Y-41732D02*
X57874Y-37007D01*
X57874Y-42125D02*
X53149Y-42125D01*
X57874Y-46850D02*
X53149Y-46850D01*
X53149Y-46850D02*
X53149Y-42125D01*
X57874Y-46850D02*
X57874Y-42125D01*
X57874Y-47244D02*
X53149Y-47244D01*
X57874Y-51968D02*
X53149Y-51968D01*
X53149Y-51968D02*
X53149Y-47244D01*
X57874Y-51968D02*
X57874Y-47244D01*
G54D13*
X35170Y-25702D02*
G75*
G03X35170Y-25702I-40J0D01*
G74*
G01*
X35219Y-25702D02*
G75*
G03X35219Y-25702I-89J0D01*
G74*
G01*
X40270Y-25522D02*
X40270Y-25322D01*
X40270Y-25322D02*
X38470Y-25322D01*
X38470Y-25322D02*
X38470Y-25522D01*
X35370Y-21722D02*
X43370Y-21722D01*
X43370Y-21722D02*
X43370Y-25522D01*
X43370Y-25522D02*
X35370Y-25522D01*
X35370Y-25522D02*
X35370Y-21722D01*
X35170Y-57198D02*
G75*
G03X35170Y-57198I-40J0D01*
G74*
G01*
X35219Y-57198D02*
G75*
G03X35219Y-57198I-89J0D01*
G74*
G01*
X40270Y-57018D02*
X40270Y-56818D01*
X40270Y-56818D02*
X38470Y-56818D01*
X38470Y-56818D02*
X38470Y-57018D01*
X35370Y-53218D02*
X43370Y-53218D01*
X43370Y-53218D02*
X43370Y-57018D01*
X43370Y-57018D02*
X35370Y-57018D01*
X35370Y-57018D02*
X35370Y-53218D01*
X26271Y-21153D02*
X26271Y-22153D01*
X26271Y-22153D02*
X27271Y-22153D01*
X27271Y-22153D02*
X27271Y-21153D01*
X27271Y-21153D02*
X26271Y-21153D01*
X51468Y-21153D02*
X51468Y-22153D01*
X51468Y-22153D02*
X52468Y-22153D01*
X52468Y-22153D02*
X52468Y-21153D01*
X52468Y-21153D02*
X51468Y-21153D01*
X44775Y-21153D02*
X44775Y-22153D01*
X44775Y-22153D02*
X45775Y-22153D01*
X45775Y-22153D02*
X45775Y-21153D01*
X45775Y-21153D02*
X44775Y-21153D01*
X32964Y-21153D02*
X32964Y-22153D01*
X32964Y-22153D02*
X33964Y-22153D01*
X33964Y-22153D02*
X33964Y-21153D01*
X33964Y-21153D02*
X32964Y-21153D01*
X48169Y-50590D02*
X30570Y-50590D01*
X48169Y-47047D02*
X30570Y-47047D01*
X30570Y-50590D02*
X30570Y-47047D01*
X48169Y-50590D02*
X48169Y-47047D01*
X45870Y-47818D02*
X44870Y-47818D01*
X45870Y-48818D02*
X44870Y-48818D01*
X44870Y-48818D02*
X44870Y-47818D01*
X45870Y-47818D02*
X45870Y-48818D01*
X30570Y-40748D02*
X48169Y-40748D01*
X30570Y-44291D02*
X48169Y-44291D01*
X48169Y-40748D02*
X48169Y-44291D01*
X30570Y-40748D02*
X30570Y-44291D01*
X32870Y-43519D02*
X33870Y-43519D01*
X32870Y-42519D02*
X33870Y-42519D01*
X33870Y-42519D02*
X33870Y-43519D01*
X32870Y-43519D02*
X32870Y-42519D01*
X48169Y-37992D02*
X30570Y-37992D01*
X48169Y-34448D02*
X30570Y-34448D01*
X30570Y-37992D02*
X30570Y-34448D01*
X48169Y-37992D02*
X48169Y-34448D01*
X45870Y-35220D02*
X44870Y-35220D01*
X45870Y-36220D02*
X44870Y-36220D01*
X44870Y-36220D02*
X44870Y-35220D01*
X45870Y-35220D02*
X45870Y-36220D01*
X30570Y-28149D02*
X48169Y-28149D01*
X30570Y-31692D02*
X48169Y-31692D01*
X48169Y-28149D02*
X48169Y-31692D01*
X30570Y-28149D02*
X30570Y-31692D01*
X32870Y-30921D02*
X33870Y-30921D01*
X32870Y-29921D02*
X33870Y-29921D01*
X33870Y-29921D02*
X33870Y-30921D01*
X32870Y-30921D02*
X32870Y-29921D01*
X21488Y-48921D02*
X21488Y-49921D01*
X21488Y-49921D02*
X22488Y-49921D01*
X22488Y-49921D02*
X22488Y-48921D01*
X22488Y-48921D02*
X21488Y-48921D01*
X25488Y-48921D02*
X25488Y-49921D01*
X25488Y-49921D02*
X26488Y-49921D01*
X26488Y-49921D02*
X26488Y-48921D01*
X26488Y-48921D02*
X25488Y-48921D01*
G54D14*
X24992Y-46377D02*
X25392Y-46377D01*
X22992Y-46377D02*
X22592Y-46377D01*
X24992Y-46877D02*
X22992Y-46877D01*
X22992Y-46877D02*
X22992Y-45877D01*
X22992Y-45877D02*
X24992Y-45877D01*
X24992Y-45877D02*
X24992Y-46877D01*
X40134Y-51913D02*
X40534Y-51913D01*
X38134Y-51913D02*
X37734Y-51913D01*
X40134Y-52413D02*
X38134Y-52413D01*
X38134Y-52413D02*
X38134Y-51413D01*
X38134Y-51413D02*
X40134Y-51413D01*
X40134Y-51413D02*
X40134Y-52413D01*
G54D11*
X44658Y-54639D02*
X44658Y-54924D01*
X44638Y-54982D01*
X44600Y-55020D01*
X44543Y-55039D01*
X44505Y-55039D01*
X45058Y-55039D02*
X44829Y-55039D01*
X44943Y-55039D02*
X44943Y-54639D01*
X44905Y-54696D01*
X44867Y-54734D01*
X44829Y-54753D01*
X25770Y-42704D02*
X25770Y-42304D01*
X25998Y-42704D01*
X25998Y-42304D01*
X26398Y-42704D02*
X26170Y-42704D01*
X26284Y-42704D02*
X26284Y-42304D01*
X26246Y-42361D01*
X26208Y-42399D01*
X26170Y-42418D01*
X25876Y-36405D02*
X25876Y-36005D01*
X26104Y-36405D01*
X26104Y-36005D01*
X26276Y-36043D02*
X26295Y-36024D01*
X26333Y-36005D01*
X26428Y-36005D01*
X26466Y-36024D01*
X26485Y-36043D01*
X26504Y-36081D01*
X26504Y-36119D01*
X26485Y-36176D01*
X26257Y-36405D01*
X26504Y-36405D01*
X52195Y-29299D02*
X52195Y-28899D01*
X52423Y-29299D01*
X52423Y-28899D01*
X52576Y-28899D02*
X52823Y-28899D01*
X52690Y-29051D01*
X52747Y-29051D01*
X52785Y-29070D01*
X52804Y-29089D01*
X52823Y-29127D01*
X52823Y-29222D01*
X52804Y-29260D01*
X52785Y-29280D01*
X52747Y-29299D01*
X52633Y-29299D01*
X52595Y-29280D01*
X52576Y-29260D01*
X52266Y-34444D02*
X52266Y-34044D01*
X52494Y-34444D01*
X52494Y-34044D01*
X52856Y-34178D02*
X52856Y-34444D01*
X52761Y-34025D02*
X52666Y-34311D01*
X52913Y-34311D01*
X52230Y-39625D02*
X52230Y-39225D01*
X52459Y-39625D01*
X52459Y-39225D01*
X52840Y-39225D02*
X52649Y-39225D01*
X52630Y-39416D01*
X52649Y-39397D01*
X52687Y-39378D01*
X52783Y-39378D01*
X52821Y-39397D01*
X52840Y-39416D01*
X52859Y-39454D01*
X52859Y-39549D01*
X52840Y-39587D01*
X52821Y-39606D01*
X52783Y-39625D01*
X52687Y-39625D01*
X52649Y-39606D01*
X52630Y-39587D01*
X52230Y-44629D02*
X52230Y-44229D01*
X52459Y-44629D01*
X52459Y-44229D01*
X52821Y-44229D02*
X52744Y-44229D01*
X52706Y-44248D01*
X52687Y-44267D01*
X52649Y-44325D01*
X52630Y-44401D01*
X52630Y-44553D01*
X52649Y-44591D01*
X52668Y-44610D01*
X52706Y-44629D01*
X52783Y-44629D01*
X52821Y-44610D01*
X52840Y-44591D01*
X52859Y-44553D01*
X52859Y-44458D01*
X52840Y-44420D01*
X52821Y-44401D01*
X52783Y-44382D01*
X52706Y-44382D01*
X52668Y-44401D01*
X52649Y-44420D01*
X52630Y-44458D01*
X52195Y-49810D02*
X52195Y-49410D01*
X52423Y-49810D01*
X52423Y-49410D01*
X52576Y-49410D02*
X52842Y-49410D01*
X52671Y-49810D01*
X34522Y-23787D02*
X34522Y-23387D01*
X34750Y-23787D01*
X34750Y-23387D01*
X34998Y-23558D02*
X34960Y-23539D01*
X34941Y-23520D01*
X34922Y-23482D01*
X34922Y-23463D01*
X34941Y-23425D01*
X34960Y-23406D01*
X34998Y-23387D01*
X35074Y-23387D01*
X35112Y-23406D01*
X35131Y-23425D01*
X35150Y-23463D01*
X35150Y-23482D01*
X35131Y-23520D01*
X35112Y-23539D01*
X35074Y-23558D01*
X34998Y-23558D01*
X34960Y-23577D01*
X34941Y-23596D01*
X34922Y-23634D01*
X34922Y-23711D01*
X34941Y-23749D01*
X34960Y-23768D01*
X34998Y-23787D01*
X35074Y-23787D01*
X35112Y-23768D01*
X35131Y-23749D01*
X35150Y-23711D01*
X35150Y-23634D01*
X35131Y-23596D01*
X35112Y-23577D01*
X35074Y-23558D01*
X34044Y-55247D02*
X34044Y-54847D01*
X34272Y-55247D01*
X34272Y-54847D01*
X34672Y-55247D02*
X34444Y-55247D01*
X34558Y-55247D02*
X34558Y-54847D01*
X34520Y-54905D01*
X34482Y-54943D01*
X34444Y-54962D01*
X34806Y-54847D02*
X35053Y-54847D01*
X34920Y-55000D01*
X34977Y-55000D01*
X35015Y-55019D01*
X35034Y-55038D01*
X35053Y-55076D01*
X35053Y-55171D01*
X35034Y-55209D01*
X35015Y-55228D01*
X34977Y-55247D01*
X34863Y-55247D01*
X34825Y-55228D01*
X34806Y-55209D01*
X26266Y-20534D02*
X26495Y-20534D01*
X26381Y-20934D02*
X26381Y-20534D01*
X26628Y-20934D02*
X26628Y-20534D01*
X26781Y-20534D01*
X26819Y-20553D01*
X26838Y-20572D01*
X26857Y-20610D01*
X26857Y-20667D01*
X26838Y-20705D01*
X26819Y-20724D01*
X26781Y-20744D01*
X26628Y-20744D01*
X27238Y-20934D02*
X27009Y-20934D01*
X27124Y-20934D02*
X27124Y-20534D01*
X27085Y-20591D01*
X27047Y-20629D01*
X27009Y-20648D01*
X51463Y-20534D02*
X51692Y-20534D01*
X51578Y-20934D02*
X51578Y-20534D01*
X51825Y-20934D02*
X51825Y-20534D01*
X51978Y-20534D01*
X52016Y-20553D01*
X52035Y-20572D01*
X52054Y-20610D01*
X52054Y-20667D01*
X52035Y-20705D01*
X52016Y-20724D01*
X51978Y-20744D01*
X51825Y-20744D01*
X52206Y-20572D02*
X52225Y-20553D01*
X52263Y-20534D01*
X52358Y-20534D01*
X52397Y-20553D01*
X52416Y-20572D01*
X52435Y-20610D01*
X52435Y-20648D01*
X52416Y-20705D01*
X52187Y-20934D01*
X52435Y-20934D01*
X44770Y-20534D02*
X44999Y-20534D01*
X44885Y-20934D02*
X44885Y-20534D01*
X45132Y-20934D02*
X45132Y-20534D01*
X45285Y-20534D01*
X45323Y-20553D01*
X45342Y-20572D01*
X45361Y-20610D01*
X45361Y-20667D01*
X45342Y-20705D01*
X45323Y-20724D01*
X45285Y-20744D01*
X45132Y-20744D01*
X45494Y-20534D02*
X45742Y-20534D01*
X45608Y-20686D01*
X45666Y-20686D01*
X45704Y-20705D01*
X45723Y-20724D01*
X45742Y-20763D01*
X45742Y-20858D01*
X45723Y-20896D01*
X45704Y-20915D01*
X45666Y-20934D01*
X45551Y-20934D01*
X45513Y-20915D01*
X45494Y-20896D01*
X32959Y-20534D02*
X33188Y-20534D01*
X33074Y-20934D02*
X33074Y-20534D01*
X33321Y-20934D02*
X33321Y-20534D01*
X33474Y-20534D01*
X33512Y-20553D01*
X33531Y-20572D01*
X33550Y-20610D01*
X33550Y-20667D01*
X33531Y-20705D01*
X33512Y-20724D01*
X33474Y-20744D01*
X33321Y-20744D01*
X33893Y-20667D02*
X33893Y-20934D01*
X33797Y-20515D02*
X33702Y-20801D01*
X33950Y-20801D01*
G54D15*
X23489Y-23720D02*
X23489Y-23520D01*
X23489Y-23615D02*
X23603Y-23615D01*
X23603Y-23720D02*
X23603Y-23520D01*
X23803Y-23720D02*
X23689Y-23720D01*
X23746Y-23720D02*
X23746Y-23520D01*
X23727Y-23548D01*
X23708Y-23568D01*
X23689Y-23577D01*
X54965Y-23712D02*
X54965Y-23512D01*
X54965Y-23607D02*
X55080Y-23607D01*
X55080Y-23712D02*
X55080Y-23512D01*
X55165Y-23531D02*
X55175Y-23522D01*
X55194Y-23512D01*
X55241Y-23512D01*
X55260Y-23522D01*
X55270Y-23531D01*
X55280Y-23550D01*
X55280Y-23569D01*
X55270Y-23598D01*
X55156Y-23712D01*
X55280Y-23712D01*
X23469Y-55208D02*
X23469Y-55008D01*
X23469Y-55103D02*
X23583Y-55103D01*
X23583Y-55208D02*
X23583Y-55008D01*
X23660Y-55008D02*
X23783Y-55008D01*
X23717Y-55084D01*
X23745Y-55084D01*
X23764Y-55094D01*
X23774Y-55103D01*
X23783Y-55122D01*
X23783Y-55170D01*
X23774Y-55189D01*
X23764Y-55199D01*
X23745Y-55208D01*
X23688Y-55208D01*
X23669Y-55199D01*
X23660Y-55189D01*
X54977Y-55161D02*
X54977Y-54961D01*
X54977Y-55056D02*
X55091Y-55056D01*
X55091Y-55161D02*
X55091Y-54961D01*
X55272Y-55028D02*
X55272Y-55161D01*
X55225Y-54951D02*
X55177Y-55094D01*
X55301Y-55094D01*
G54D11*
X29276Y-48991D02*
X29276Y-48591D01*
X29504Y-48991D01*
X29504Y-48591D01*
X29904Y-48991D02*
X29676Y-48991D01*
X29790Y-48991D02*
X29790Y-48591D01*
X29752Y-48649D01*
X29714Y-48687D01*
X29676Y-48706D01*
X30057Y-48630D02*
X30076Y-48611D01*
X30114Y-48591D01*
X30209Y-48591D01*
X30247Y-48611D01*
X30266Y-48630D01*
X30285Y-48668D01*
X30285Y-48706D01*
X30266Y-48763D01*
X30038Y-48991D01*
X30285Y-48991D01*
G54D10*
X32971Y-50794D02*
X32990Y-50775D01*
X33027Y-50756D01*
X33121Y-50756D01*
X33159Y-50775D01*
X33177Y-50794D01*
X33196Y-50831D01*
X33196Y-50869D01*
X33177Y-50925D01*
X32952Y-51150D01*
X33196Y-51150D01*
X33534Y-50756D02*
X33459Y-50756D01*
X33421Y-50775D01*
X33402Y-50794D01*
X33365Y-50850D01*
X33346Y-50925D01*
X33346Y-51075D01*
X33365Y-51113D01*
X33384Y-51131D01*
X33421Y-51150D01*
X33496Y-51150D01*
X33534Y-51131D01*
X33552Y-51113D01*
X33571Y-51075D01*
X33571Y-50981D01*
X33552Y-50944D01*
X33534Y-50925D01*
X33496Y-50906D01*
X33421Y-50906D01*
X33384Y-50925D01*
X33365Y-50944D01*
X33346Y-50981D01*
X32908Y-46479D02*
X32927Y-46460D01*
X32964Y-46441D01*
X33058Y-46441D01*
X33096Y-46460D01*
X33114Y-46479D01*
X33133Y-46516D01*
X33133Y-46554D01*
X33114Y-46610D01*
X32889Y-46835D01*
X33133Y-46835D01*
X33489Y-46441D02*
X33302Y-46441D01*
X33283Y-46629D01*
X33302Y-46610D01*
X33339Y-46591D01*
X33433Y-46591D01*
X33471Y-46610D01*
X33489Y-46629D01*
X33508Y-46666D01*
X33508Y-46760D01*
X33489Y-46798D01*
X33471Y-46816D01*
X33433Y-46835D01*
X33339Y-46835D01*
X33302Y-46816D01*
X33283Y-46798D01*
X45442Y-50770D02*
X45461Y-50751D01*
X45498Y-50733D01*
X45592Y-50733D01*
X45630Y-50751D01*
X45648Y-50770D01*
X45667Y-50808D01*
X45667Y-50845D01*
X45648Y-50901D01*
X45423Y-51126D01*
X45667Y-51126D01*
X45561Y-46772D02*
X45336Y-46772D01*
X45448Y-46772D02*
X45448Y-46378D01*
X45411Y-46435D01*
X45373Y-46472D01*
X45336Y-46491D01*
G54D11*
X29359Y-42795D02*
X29359Y-42395D01*
X29587Y-42795D01*
X29587Y-42395D01*
X29987Y-42795D02*
X29759Y-42795D01*
X29873Y-42795D02*
X29873Y-42395D01*
X29835Y-42452D01*
X29797Y-42490D01*
X29759Y-42509D01*
X30368Y-42795D02*
X30140Y-42795D01*
X30254Y-42795D02*
X30254Y-42395D01*
X30216Y-42452D01*
X30178Y-42490D01*
X30140Y-42509D01*
G54D10*
X45168Y-40188D02*
X45187Y-40169D01*
X45224Y-40150D01*
X45318Y-40150D01*
X45356Y-40169D01*
X45374Y-40188D01*
X45393Y-40225D01*
X45393Y-40263D01*
X45374Y-40319D01*
X45149Y-40544D01*
X45393Y-40544D01*
X45730Y-40150D02*
X45655Y-40150D01*
X45618Y-40169D01*
X45599Y-40188D01*
X45562Y-40244D01*
X45543Y-40319D01*
X45543Y-40469D01*
X45562Y-40506D01*
X45580Y-40525D01*
X45618Y-40544D01*
X45693Y-40544D01*
X45730Y-40525D01*
X45749Y-40506D01*
X45768Y-40469D01*
X45768Y-40375D01*
X45749Y-40338D01*
X45730Y-40319D01*
X45693Y-40300D01*
X45618Y-40300D01*
X45580Y-40319D01*
X45562Y-40338D01*
X45543Y-40375D01*
X45231Y-44502D02*
X45250Y-44484D01*
X45287Y-44465D01*
X45381Y-44465D01*
X45419Y-44484D01*
X45437Y-44502D01*
X45456Y-44540D01*
X45456Y-44577D01*
X45437Y-44634D01*
X45212Y-44859D01*
X45456Y-44859D01*
X45812Y-44465D02*
X45625Y-44465D01*
X45606Y-44652D01*
X45625Y-44634D01*
X45662Y-44615D01*
X45756Y-44615D01*
X45793Y-44634D01*
X45812Y-44652D01*
X45831Y-44690D01*
X45831Y-44784D01*
X45812Y-44821D01*
X45793Y-44840D01*
X45756Y-44859D01*
X45662Y-44859D01*
X45625Y-44840D01*
X45606Y-44821D01*
X33072Y-40211D02*
X33091Y-40192D01*
X33128Y-40174D01*
X33222Y-40174D01*
X33260Y-40192D01*
X33278Y-40211D01*
X33297Y-40249D01*
X33297Y-40286D01*
X33278Y-40342D01*
X33053Y-40567D01*
X33297Y-40567D01*
X33403Y-44922D02*
X33178Y-44922D01*
X33291Y-44922D02*
X33291Y-44528D01*
X33253Y-44584D01*
X33216Y-44622D01*
X33178Y-44640D01*
G54D11*
X29272Y-36259D02*
X29272Y-35859D01*
X29501Y-36259D01*
X29501Y-35859D01*
X29901Y-36259D02*
X29672Y-36259D01*
X29786Y-36259D02*
X29786Y-35859D01*
X29748Y-35916D01*
X29710Y-35954D01*
X29672Y-35973D01*
X30148Y-35859D02*
X30186Y-35859D01*
X30224Y-35878D01*
X30243Y-35897D01*
X30262Y-35935D01*
X30282Y-36012D01*
X30282Y-36107D01*
X30262Y-36183D01*
X30243Y-36221D01*
X30224Y-36240D01*
X30186Y-36259D01*
X30148Y-36259D01*
X30110Y-36240D01*
X30091Y-36221D01*
X30072Y-36183D01*
X30053Y-36107D01*
X30053Y-36012D01*
X30072Y-35935D01*
X30091Y-35897D01*
X30110Y-35878D01*
X30148Y-35859D01*
G54D10*
X32971Y-38195D02*
X32990Y-38177D01*
X33027Y-38158D01*
X33121Y-38158D01*
X33159Y-38177D01*
X33177Y-38195D01*
X33196Y-38233D01*
X33196Y-38270D01*
X33177Y-38327D01*
X32952Y-38552D01*
X33196Y-38552D01*
X33534Y-38158D02*
X33459Y-38158D01*
X33421Y-38177D01*
X33402Y-38195D01*
X33365Y-38252D01*
X33346Y-38327D01*
X33346Y-38477D01*
X33365Y-38514D01*
X33384Y-38533D01*
X33421Y-38552D01*
X33496Y-38552D01*
X33534Y-38533D01*
X33552Y-38514D01*
X33571Y-38477D01*
X33571Y-38383D01*
X33552Y-38345D01*
X33534Y-38327D01*
X33496Y-38308D01*
X33421Y-38308D01*
X33384Y-38327D01*
X33365Y-38345D01*
X33346Y-38383D01*
X32908Y-33880D02*
X32927Y-33862D01*
X32964Y-33843D01*
X33058Y-33843D01*
X33096Y-33862D01*
X33114Y-33880D01*
X33133Y-33918D01*
X33133Y-33955D01*
X33114Y-34012D01*
X32889Y-34237D01*
X33133Y-34237D01*
X33489Y-33843D02*
X33302Y-33843D01*
X33283Y-34030D01*
X33302Y-34012D01*
X33339Y-33993D01*
X33433Y-33993D01*
X33471Y-34012D01*
X33489Y-34030D01*
X33508Y-34068D01*
X33508Y-34162D01*
X33489Y-34199D01*
X33471Y-34218D01*
X33433Y-34237D01*
X33339Y-34237D01*
X33302Y-34218D01*
X33283Y-34199D01*
X45442Y-38172D02*
X45461Y-38153D01*
X45498Y-38134D01*
X45592Y-38134D01*
X45630Y-38153D01*
X45648Y-38172D01*
X45667Y-38209D01*
X45667Y-38247D01*
X45648Y-38303D01*
X45423Y-38528D01*
X45667Y-38528D01*
X45561Y-34174D02*
X45336Y-34174D01*
X45448Y-34174D02*
X45448Y-33780D01*
X45411Y-33836D01*
X45373Y-33874D01*
X45336Y-33892D01*
G54D11*
X29679Y-30078D02*
X29679Y-29678D01*
X29908Y-30078D01*
X29908Y-29678D01*
X30117Y-30078D02*
X30193Y-30078D01*
X30231Y-30059D01*
X30250Y-30040D01*
X30289Y-29983D01*
X30308Y-29907D01*
X30308Y-29754D01*
X30289Y-29716D01*
X30269Y-29697D01*
X30231Y-29678D01*
X30155Y-29678D01*
X30117Y-29697D01*
X30098Y-29716D01*
X30079Y-29754D01*
X30079Y-29850D01*
X30098Y-29888D01*
X30117Y-29907D01*
X30155Y-29926D01*
X30231Y-29926D01*
X30269Y-29907D01*
X30289Y-29888D01*
X30308Y-29850D01*
G54D10*
X45168Y-27589D02*
X45187Y-27570D01*
X45224Y-27552D01*
X45318Y-27552D01*
X45356Y-27570D01*
X45374Y-27589D01*
X45393Y-27627D01*
X45393Y-27664D01*
X45374Y-27720D01*
X45149Y-27945D01*
X45393Y-27945D01*
X45730Y-27552D02*
X45655Y-27552D01*
X45618Y-27570D01*
X45599Y-27589D01*
X45562Y-27645D01*
X45543Y-27720D01*
X45543Y-27870D01*
X45562Y-27908D01*
X45580Y-27927D01*
X45618Y-27945D01*
X45693Y-27945D01*
X45730Y-27927D01*
X45749Y-27908D01*
X45768Y-27870D01*
X45768Y-27777D01*
X45749Y-27739D01*
X45730Y-27720D01*
X45693Y-27702D01*
X45618Y-27702D01*
X45580Y-27720D01*
X45562Y-27739D01*
X45543Y-27777D01*
X45231Y-31904D02*
X45250Y-31885D01*
X45287Y-31867D01*
X45381Y-31867D01*
X45419Y-31885D01*
X45437Y-31904D01*
X45456Y-31942D01*
X45456Y-31979D01*
X45437Y-32035D01*
X45212Y-32260D01*
X45456Y-32260D01*
X45812Y-31867D02*
X45625Y-31867D01*
X45606Y-32054D01*
X45625Y-32035D01*
X45662Y-32017D01*
X45756Y-32017D01*
X45793Y-32035D01*
X45812Y-32054D01*
X45831Y-32092D01*
X45831Y-32185D01*
X45812Y-32223D01*
X45793Y-32242D01*
X45756Y-32260D01*
X45662Y-32260D01*
X45625Y-32242D01*
X45606Y-32223D01*
X33072Y-27613D02*
X33091Y-27594D01*
X33128Y-27575D01*
X33222Y-27575D01*
X33260Y-27594D01*
X33278Y-27613D01*
X33297Y-27650D01*
X33297Y-27688D01*
X33278Y-27744D01*
X33053Y-27969D01*
X33297Y-27969D01*
X33403Y-32323D02*
X33178Y-32323D01*
X33291Y-32323D02*
X33291Y-31930D01*
X33253Y-31986D01*
X33216Y-32023D01*
X33178Y-32042D01*
G54D11*
X21483Y-48302D02*
X21711Y-48302D01*
X21597Y-48702D02*
X21597Y-48302D01*
X21845Y-48702D02*
X21845Y-48302D01*
X21997Y-48302D01*
X22035Y-48321D01*
X22054Y-48340D01*
X22073Y-48378D01*
X22073Y-48435D01*
X22054Y-48473D01*
X22035Y-48492D01*
X21997Y-48511D01*
X21845Y-48511D01*
X22435Y-48302D02*
X22245Y-48302D01*
X22226Y-48492D01*
X22245Y-48473D01*
X22283Y-48454D01*
X22378Y-48454D01*
X22416Y-48473D01*
X22435Y-48492D01*
X22454Y-48530D01*
X22454Y-48626D01*
X22435Y-48664D01*
X22416Y-48683D01*
X22378Y-48702D01*
X22283Y-48702D01*
X22245Y-48683D01*
X22226Y-48664D01*
X25483Y-48302D02*
X25711Y-48302D01*
X25597Y-48702D02*
X25597Y-48302D01*
X25845Y-48702D02*
X25845Y-48302D01*
X25997Y-48302D01*
X26035Y-48321D01*
X26054Y-48340D01*
X26073Y-48378D01*
X26073Y-48435D01*
X26054Y-48473D01*
X26035Y-48492D01*
X25997Y-48511D01*
X25845Y-48511D01*
X26416Y-48302D02*
X26340Y-48302D01*
X26302Y-48321D01*
X26283Y-48340D01*
X26245Y-48397D01*
X26226Y-48473D01*
X26226Y-48626D01*
X26245Y-48664D01*
X26264Y-48683D01*
X26302Y-48702D01*
X26378Y-48702D01*
X26416Y-48683D01*
X26435Y-48664D01*
X26454Y-48626D01*
X26454Y-48530D01*
X26435Y-48492D01*
X26416Y-48473D01*
X26378Y-48454D01*
X26302Y-48454D01*
X26264Y-48473D01*
X26245Y-48492D01*
X26226Y-48530D01*
X23968Y-47594D02*
X23835Y-47403D01*
X23740Y-47594D02*
X23740Y-47194D01*
X23892Y-47194D01*
X23930Y-47213D01*
X23949Y-47232D01*
X23968Y-47270D01*
X23968Y-47327D01*
X23949Y-47365D01*
X23930Y-47384D01*
X23892Y-47403D01*
X23740Y-47403D01*
X24121Y-47232D02*
X24140Y-47213D01*
X24178Y-47194D01*
X24273Y-47194D01*
X24311Y-47213D01*
X24330Y-47232D01*
X24349Y-47270D01*
X24349Y-47308D01*
X24330Y-47365D01*
X24102Y-47594D01*
X24349Y-47594D01*
X39110Y-53129D02*
X38977Y-52939D01*
X38881Y-53129D02*
X38881Y-52729D01*
X39034Y-52729D01*
X39072Y-52748D01*
X39091Y-52767D01*
X39110Y-52805D01*
X39110Y-52863D01*
X39091Y-52901D01*
X39072Y-52920D01*
X39034Y-52939D01*
X38881Y-52939D01*
X39491Y-53129D02*
X39262Y-53129D01*
X39377Y-53129D02*
X39377Y-52729D01*
X39339Y-52786D01*
X39300Y-52825D01*
X39262Y-52844D01*
M02*
