%FSLAX34Y34*%
G04 Gerber Fmt 3.4, Leading zero omitted, Abs format*
G04 (created by PCBNEW (2014-02-21 BZR 4712)-product) date Tue 25 Feb 2014 10:03:02 PM PST*
%MOIN*%
G01*
G70*
G90*
G04 APERTURE LIST*
%ADD10C,0.005906*%
%ADD11R,0.080000X0.068000*%
%ADD12O,0.080000X0.068000*%
%ADD13C,0.086614*%
%ADD14R,0.060000X0.060000*%
%ADD15C,0.060000*%
%ADD16R,0.088000X0.088000*%
%ADD17C,0.450000*%
%ADD18R,0.068000X0.068000*%
%ADD19C,0.068000*%
%ADD20C,0.078700*%
%ADD21C,0.035000*%
%ADD22C,0.050000*%
%ADD23C,0.008000*%
G04 APERTURE END LIST*
G54D10*
G54D11*
X44775Y-51905D03*
G54D12*
X44775Y-52905D03*
X44775Y-53905D03*
G54D13*
X21653Y-41535D03*
X21653Y-43503D03*
X21653Y-35236D03*
X21653Y-37204D03*
X57086Y-30118D03*
X57086Y-28149D03*
X57086Y-35236D03*
X57086Y-33267D03*
X57086Y-40354D03*
X57086Y-38385D03*
X57086Y-45472D03*
X57086Y-43503D03*
X57086Y-50590D03*
X57086Y-48622D03*
G54D14*
X37370Y-24122D03*
G54D15*
X37370Y-23122D03*
X38370Y-24122D03*
X38370Y-23122D03*
X39370Y-24122D03*
X39370Y-23122D03*
X40370Y-24122D03*
X40370Y-23122D03*
X41370Y-24122D03*
X41370Y-23122D03*
G54D14*
X37370Y-55618D03*
G54D15*
X37370Y-54618D03*
X38370Y-55618D03*
X38370Y-54618D03*
X39370Y-55618D03*
X39370Y-54618D03*
X40370Y-55618D03*
X40370Y-54618D03*
X41370Y-55618D03*
X41370Y-54618D03*
G54D16*
X26771Y-21653D03*
X51968Y-21653D03*
X45275Y-21653D03*
X33464Y-21653D03*
G54D17*
X23622Y-23622D03*
X55118Y-23622D03*
X23622Y-55118D03*
X55118Y-55118D03*
G54D18*
X45370Y-48318D03*
G54D19*
X44370Y-48318D03*
X43370Y-48318D03*
X42370Y-48318D03*
X41370Y-48318D03*
X40370Y-48318D03*
X39370Y-48318D03*
X38370Y-48318D03*
X37370Y-48318D03*
X36370Y-48318D03*
X35370Y-48318D03*
X34370Y-48318D03*
X33370Y-48318D03*
X33370Y-49318D03*
X34370Y-49318D03*
X35370Y-49318D03*
X36370Y-49318D03*
X37370Y-49318D03*
X38370Y-49318D03*
X39370Y-49318D03*
X40370Y-49318D03*
X41370Y-49318D03*
X42370Y-49318D03*
X43370Y-49318D03*
X44370Y-49318D03*
X45370Y-49318D03*
G54D18*
X33370Y-43019D03*
G54D19*
X34370Y-43019D03*
X35370Y-43019D03*
X36370Y-43019D03*
X37370Y-43019D03*
X38370Y-43019D03*
X39370Y-43019D03*
X40370Y-43019D03*
X41370Y-43019D03*
X42370Y-43019D03*
X43370Y-43019D03*
X44370Y-43019D03*
X45370Y-43019D03*
X45370Y-42019D03*
X44370Y-42019D03*
X43370Y-42019D03*
X42370Y-42019D03*
X41370Y-42019D03*
X40370Y-42019D03*
X39370Y-42019D03*
X38370Y-42019D03*
X37370Y-42019D03*
X36370Y-42019D03*
X35370Y-42019D03*
X34370Y-42019D03*
X33370Y-42019D03*
G54D18*
X45370Y-35720D03*
G54D19*
X44370Y-35720D03*
X43370Y-35720D03*
X42370Y-35720D03*
X41370Y-35720D03*
X40370Y-35720D03*
X39370Y-35720D03*
X38370Y-35720D03*
X37370Y-35720D03*
X36370Y-35720D03*
X35370Y-35720D03*
X34370Y-35720D03*
X33370Y-35720D03*
X33370Y-36720D03*
X34370Y-36720D03*
X35370Y-36720D03*
X36370Y-36720D03*
X37370Y-36720D03*
X38370Y-36720D03*
X39370Y-36720D03*
X40370Y-36720D03*
X41370Y-36720D03*
X42370Y-36720D03*
X43370Y-36720D03*
X44370Y-36720D03*
X45370Y-36720D03*
G54D18*
X33370Y-30421D03*
G54D19*
X34370Y-30421D03*
X35370Y-30421D03*
X36370Y-30421D03*
X37370Y-30421D03*
X38370Y-30421D03*
X39370Y-30421D03*
X40370Y-30421D03*
X41370Y-30421D03*
X42370Y-30421D03*
X43370Y-30421D03*
X44370Y-30421D03*
X45370Y-30421D03*
X45370Y-29421D03*
X44370Y-29421D03*
X43370Y-29421D03*
X42370Y-29421D03*
X41370Y-29421D03*
X40370Y-29421D03*
X39370Y-29421D03*
X38370Y-29421D03*
X37370Y-29421D03*
X36370Y-29421D03*
X35370Y-29421D03*
X34370Y-29421D03*
X33370Y-29421D03*
G54D16*
X21988Y-49421D03*
X25988Y-49421D03*
G54D20*
X25992Y-46377D03*
X21992Y-46377D03*
X41134Y-51913D03*
X37134Y-51913D03*
G54D21*
X37948Y-43783D03*
X30208Y-31251D03*
X37905Y-31251D03*
X30208Y-43783D03*
X30220Y-47027D03*
X30208Y-53244D03*
X30208Y-25598D03*
X30208Y-34460D03*
X28425Y-37570D03*
X37874Y-37574D03*
X28425Y-54618D03*
X28425Y-28114D03*
X28425Y-23122D03*
X28425Y-40755D03*
X28433Y-43503D03*
X28425Y-50129D03*
X37921Y-50129D03*
X49216Y-50972D03*
X49216Y-47055D03*
X49216Y-43019D03*
X49216Y-42019D03*
X49216Y-38374D03*
X49212Y-34456D03*
X49216Y-30421D03*
X49216Y-29421D03*
X49216Y-56968D03*
X49216Y-25468D03*
X48551Y-50972D03*
X48551Y-38374D03*
X48551Y-56968D03*
X48551Y-25460D03*
X48551Y-34456D03*
X48551Y-47055D03*
X48547Y-29421D03*
X48551Y-30421D03*
X48551Y-43019D03*
X48551Y-42019D03*
X50917Y-49318D03*
X50917Y-48318D03*
X50917Y-44669D03*
X50917Y-40771D03*
X50917Y-36720D03*
X50917Y-35720D03*
X50917Y-32070D03*
X50917Y-28145D03*
X50913Y-23122D03*
X50917Y-55618D03*
X50251Y-44669D03*
X50251Y-32070D03*
X50248Y-55618D03*
X50248Y-23122D03*
X50251Y-40771D03*
X50251Y-28145D03*
X50248Y-49318D03*
X50251Y-48318D03*
X50248Y-36720D03*
X50251Y-35720D03*
G54D22*
X37948Y-43783D02*
X30208Y-43783D01*
X37370Y-47602D02*
X36795Y-47027D01*
X36795Y-47027D02*
X30220Y-47027D01*
X37370Y-48318D02*
X37370Y-47602D01*
X38370Y-54090D02*
X37523Y-53244D01*
X37523Y-53244D02*
X30208Y-53244D01*
X38370Y-54090D02*
X38370Y-54618D01*
X38370Y-24122D02*
X38370Y-24669D01*
X38370Y-24669D02*
X37440Y-25598D01*
X37440Y-25598D02*
X30208Y-25598D01*
X37370Y-35720D02*
X37370Y-35149D01*
X37370Y-35149D02*
X36681Y-34460D01*
X38370Y-55618D02*
X38370Y-54618D01*
X38370Y-24122D02*
X38370Y-23122D01*
X41370Y-30421D02*
X41370Y-29421D01*
X37370Y-36720D02*
X37370Y-35720D01*
X41370Y-43019D02*
X41370Y-42019D01*
X37370Y-49318D02*
X37370Y-48318D01*
X37905Y-31251D02*
X30208Y-31251D01*
X36681Y-34460D02*
X30208Y-34460D01*
X22429Y-34460D02*
X30208Y-34460D01*
X21653Y-35236D02*
X22429Y-34460D01*
X28429Y-37574D02*
X28425Y-37570D01*
X37874Y-37574D02*
X28429Y-37574D01*
X37370Y-54618D02*
X28425Y-54618D01*
X37370Y-29421D02*
X37370Y-28771D01*
X36712Y-28114D02*
X28425Y-28114D01*
X37370Y-28771D02*
X36712Y-28114D01*
X37370Y-23122D02*
X28425Y-23122D01*
X37370Y-42019D02*
X37370Y-41614D01*
X37370Y-41614D02*
X36511Y-40755D01*
X37370Y-54618D02*
X37370Y-55618D01*
X37370Y-24122D02*
X37370Y-23122D01*
X37370Y-30421D02*
X37370Y-29421D01*
X41370Y-36720D02*
X41370Y-35720D01*
X37370Y-43019D02*
X37370Y-42019D01*
X41370Y-49318D02*
X41370Y-48318D01*
X36511Y-40755D02*
X28425Y-40755D01*
X37921Y-50129D02*
X28425Y-50129D01*
X21653Y-43503D02*
X28433Y-43503D01*
X49212Y-34456D02*
X49216Y-34456D01*
X49216Y-56968D02*
X49216Y-50972D01*
X49216Y-50972D02*
X49216Y-47055D01*
X49216Y-47055D02*
X49216Y-43019D01*
X49216Y-43019D02*
X49216Y-42019D01*
X49216Y-42019D02*
X49216Y-38374D01*
X49216Y-38374D02*
X49216Y-34456D01*
X49216Y-34456D02*
X49216Y-30421D01*
X49216Y-30421D02*
X49216Y-29421D01*
X49216Y-29421D02*
X49216Y-25468D01*
X48551Y-50972D02*
X48551Y-56968D01*
X48551Y-29421D02*
X48551Y-25460D01*
X48547Y-29421D02*
X48551Y-29421D01*
X48551Y-30421D02*
X48551Y-29421D01*
X48551Y-43019D02*
X48551Y-43023D01*
X48551Y-30421D02*
X48551Y-34456D01*
X48551Y-34456D02*
X48551Y-37996D01*
X48551Y-37996D02*
X48551Y-38374D01*
X48551Y-38374D02*
X48551Y-42019D01*
X48551Y-50582D02*
X48551Y-50972D01*
X48551Y-47055D02*
X48551Y-50582D01*
X48551Y-43023D02*
X48551Y-47055D01*
X48551Y-42019D02*
X48551Y-43023D01*
X36370Y-48318D02*
X36370Y-49318D01*
X35370Y-48318D02*
X35370Y-49318D01*
X34370Y-48318D02*
X34370Y-49318D01*
X33370Y-48318D02*
X33370Y-49318D01*
X42370Y-42019D02*
X42370Y-43019D01*
X43370Y-42019D02*
X43370Y-43019D01*
X44370Y-42019D02*
X44370Y-43019D01*
X45370Y-42019D02*
X45370Y-43019D01*
X36370Y-35720D02*
X36370Y-36720D01*
X35370Y-35720D02*
X35370Y-36720D01*
X34370Y-35720D02*
X34370Y-36720D01*
X33370Y-35720D02*
X33370Y-36720D01*
X45370Y-29421D02*
X45370Y-30421D01*
X44370Y-29421D02*
X44370Y-30421D01*
X43370Y-29421D02*
X43370Y-30421D01*
X42370Y-29421D02*
X42370Y-30421D01*
X40370Y-24122D02*
X40370Y-23122D01*
X40370Y-54618D02*
X40370Y-55618D01*
X50913Y-23122D02*
X50917Y-23122D01*
X50917Y-55618D02*
X50917Y-49318D01*
X50917Y-49318D02*
X50917Y-48318D01*
X50917Y-48318D02*
X50917Y-44669D01*
X50917Y-44669D02*
X50917Y-40771D01*
X50917Y-40771D02*
X50917Y-36720D01*
X50917Y-36720D02*
X50917Y-35720D01*
X50917Y-35720D02*
X50917Y-32070D01*
X50917Y-32070D02*
X50917Y-28145D01*
X50917Y-28145D02*
X50917Y-23122D01*
X51362Y-21653D02*
X51968Y-21653D01*
X50917Y-23122D02*
X50917Y-22098D01*
X50917Y-22098D02*
X51362Y-21653D01*
X50248Y-49318D02*
X50248Y-55618D01*
X50248Y-23122D02*
X50251Y-23122D01*
X50248Y-49318D02*
X50251Y-49318D01*
X50248Y-36720D02*
X50251Y-36720D01*
X50251Y-35720D02*
X50251Y-36720D01*
X50251Y-36720D02*
X50251Y-40771D01*
X50251Y-40771D02*
X50251Y-44287D01*
X50251Y-44287D02*
X50251Y-44669D01*
X50251Y-44669D02*
X50251Y-48318D01*
X50251Y-48318D02*
X50251Y-49318D01*
X50251Y-28145D02*
X50251Y-23122D01*
X50251Y-35720D02*
X50251Y-32070D01*
X50251Y-32070D02*
X50251Y-31681D01*
X50251Y-31681D02*
X50251Y-28145D01*
X45370Y-48318D02*
X45370Y-49318D01*
X44370Y-48318D02*
X44370Y-49318D01*
X43370Y-48318D02*
X43370Y-49318D01*
X42370Y-48318D02*
X42370Y-49318D01*
X33370Y-42019D02*
X33370Y-43019D01*
X34370Y-42019D02*
X34370Y-43019D01*
X35370Y-42019D02*
X35370Y-43019D01*
X36370Y-42019D02*
X36370Y-43019D01*
X45370Y-35720D02*
X45370Y-36720D01*
X44370Y-35720D02*
X44370Y-36720D01*
X43370Y-35720D02*
X43370Y-36720D01*
X42370Y-35720D02*
X42370Y-36720D01*
X33370Y-29421D02*
X33370Y-30421D01*
X34370Y-29421D02*
X34370Y-30421D01*
X35370Y-29421D02*
X35370Y-30421D01*
X36370Y-30421D02*
X36370Y-29421D01*
X41370Y-55618D02*
X41370Y-54618D01*
X41370Y-24122D02*
X41370Y-23122D01*
G54D23*
X39370Y-55618D02*
X39885Y-55102D01*
X38866Y-48814D02*
X38370Y-48318D01*
X38866Y-52244D02*
X38866Y-48814D01*
X39885Y-53263D02*
X38866Y-52244D01*
X39885Y-55102D02*
X39885Y-53263D01*
G54D22*
X21653Y-37204D02*
X21653Y-41535D01*
G54D23*
X40370Y-30421D02*
X40370Y-35720D01*
X40370Y-29421D02*
X39885Y-29905D01*
X39885Y-29905D02*
X39885Y-36236D01*
X39885Y-36236D02*
X40370Y-36720D01*
X38370Y-42019D02*
X38881Y-41507D01*
X38881Y-41507D02*
X38881Y-36232D01*
X38881Y-36232D02*
X38370Y-35720D01*
X38370Y-36720D02*
X38370Y-41161D01*
X38370Y-41161D02*
X37846Y-41685D01*
X37846Y-41685D02*
X37846Y-42496D01*
X37846Y-42496D02*
X38370Y-43019D01*
X40370Y-43019D02*
X40370Y-48318D01*
X40370Y-49318D02*
X39854Y-48803D01*
X39854Y-42535D02*
X40370Y-42019D01*
X39854Y-48803D02*
X39854Y-42535D01*
X37134Y-51913D02*
X38051Y-51913D01*
X39370Y-53232D02*
X39370Y-54618D01*
X38051Y-51913D02*
X39370Y-53232D01*
X38370Y-49318D02*
X38370Y-50677D01*
X38370Y-50677D02*
X37134Y-51913D01*
G54D22*
X57086Y-30118D02*
X57086Y-33267D01*
X57086Y-35236D02*
X57086Y-38385D01*
X57086Y-40354D02*
X57086Y-43503D01*
X57086Y-45472D02*
X57086Y-48622D01*
G54D23*
X38370Y-30421D02*
X38866Y-29925D01*
X38866Y-29925D02*
X38866Y-26653D01*
X38866Y-26653D02*
X39370Y-26149D01*
X39370Y-26149D02*
X39370Y-24122D01*
X38370Y-29421D02*
X38370Y-26460D01*
X38370Y-26460D02*
X38893Y-25937D01*
X38893Y-25937D02*
X38893Y-23598D01*
X38893Y-23598D02*
X39370Y-23122D01*
X25988Y-49421D02*
X25988Y-46382D01*
X25988Y-46382D02*
X25992Y-46377D01*
X21988Y-49421D02*
X21988Y-46382D01*
X21988Y-46382D02*
X21992Y-46377D01*
M02*
