M48
;DRILL file {Pcbnew (2014-02-21 BZR 4712)-product} date Tue 25 Feb 2014 10:02:59 PM PST
;FORMAT={-:-/ absolute / metric / decimal}
FMAT,2
METRIC,TZ
T1C0.635
T2C1.001
T3C1.016
T4C1.100
T5C5.301
%
G90
G05
M71
T1
X72.2Y-58.73
X72.2Y-71.41
X72.2Y-95.43
X72.2Y-103.52
X72.2Y-127.33
X72.2Y-138.73
X72.22Y-110.5
X76.73Y-65.02
X76.73Y-79.38
X76.73Y-87.53
X76.73Y-111.21
X76.73Y-135.24
X76.76Y-119.45
X96.2Y-95.44
X96.28Y-79.38
X96.32Y-127.33
X96.39Y-111.21
X123.31Y-74.73
X123.32Y-64.67
X123.32Y-77.27
X123.32Y-87.52
X123.32Y-97.47
X123.32Y-106.73
X123.32Y-109.27
X123.32Y-119.52
X123.32Y-129.47
X123.32Y-144.7
X125.Y-87.52
X125.01Y-64.69
X125.01Y-74.73
X125.01Y-77.27
X125.01Y-97.47
X125.01Y-106.73
X125.01Y-109.27
X125.01Y-119.52
X125.01Y-129.47
X125.01Y-144.7
X127.63Y-58.73
X127.63Y-93.27
X127.63Y-125.27
X127.63Y-141.27
X127.64Y-71.49
X127.64Y-81.46
X127.64Y-90.73
X127.64Y-103.56
X127.64Y-113.46
X127.64Y-122.73
X129.32Y-58.73
X129.33Y-71.49
X129.33Y-81.46
X129.33Y-90.73
X129.33Y-93.27
X129.33Y-103.56
X129.33Y-113.46
X129.33Y-122.73
X129.33Y-125.27
X129.33Y-141.27
T2
X55.861Y-117.8
X66.021Y-117.8
X94.321Y-131.86
X104.481Y-131.86
T3
X55.85Y-125.53
X66.01Y-125.53
X68.Y-55.
X84.76Y-74.73
X84.76Y-77.27
X84.76Y-90.73
X84.76Y-93.27
X84.76Y-106.73
X84.76Y-109.27
X84.76Y-122.73
X84.76Y-125.27
X85.Y-55.
X87.3Y-74.73
X87.3Y-77.27
X87.3Y-90.73
X87.3Y-93.27
X87.3Y-106.73
X87.3Y-109.27
X87.3Y-122.73
X87.3Y-125.27
X89.84Y-74.73
X89.84Y-77.27
X89.84Y-90.73
X89.84Y-93.27
X89.84Y-106.73
X89.84Y-109.27
X89.84Y-122.73
X89.84Y-125.27
X92.38Y-74.73
X92.38Y-77.27
X92.38Y-90.73
X92.38Y-93.27
X92.38Y-106.73
X92.38Y-109.27
X92.38Y-122.73
X92.38Y-125.27
X94.92Y-58.73
X94.92Y-61.27
X94.92Y-74.73
X94.92Y-77.27
X94.92Y-90.73
X94.92Y-93.27
X94.92Y-106.73
X94.92Y-109.27
X94.92Y-122.73
X94.92Y-125.27
X94.92Y-138.73
X94.92Y-141.27
X97.46Y-58.73
X97.46Y-61.27
X97.46Y-74.73
X97.46Y-77.27
X97.46Y-90.73
X97.46Y-93.27
X97.46Y-106.73
X97.46Y-109.27
X97.46Y-122.73
X97.46Y-125.27
X97.46Y-138.73
X97.46Y-141.27
X100.Y-58.73
X100.Y-61.27
X100.Y-74.73
X100.Y-77.27
X100.Y-90.73
X100.Y-93.27
X100.Y-106.73
X100.Y-109.27
X100.Y-122.73
X100.Y-125.27
X100.Y-138.73
X100.Y-141.27
X102.54Y-58.73
X102.54Y-61.27
X102.54Y-74.73
X102.54Y-77.27
X102.54Y-90.73
X102.54Y-93.27
X102.54Y-106.73
X102.54Y-109.27
X102.54Y-122.73
X102.54Y-125.27
X102.54Y-138.73
X102.54Y-141.27
X105.08Y-58.73
X105.08Y-61.27
X105.08Y-74.73
X105.08Y-77.27
X105.08Y-90.73
X105.08Y-93.27
X105.08Y-106.73
X105.08Y-109.27
X105.08Y-122.73
X105.08Y-125.27
X105.08Y-138.73
X105.08Y-141.27
X107.62Y-74.73
X107.62Y-77.27
X107.62Y-90.73
X107.62Y-93.27
X107.62Y-106.73
X107.62Y-109.27
X107.62Y-122.73
X107.62Y-125.27
X110.16Y-74.73
X110.16Y-77.27
X110.16Y-90.73
X110.16Y-93.27
X110.16Y-106.73
X110.16Y-109.27
X110.16Y-122.73
X110.16Y-125.27
X112.7Y-74.73
X112.7Y-77.27
X112.7Y-90.73
X112.7Y-93.27
X112.7Y-106.73
X112.7Y-109.27
X112.7Y-122.73
X112.7Y-125.27
X113.73Y-131.84
X113.73Y-134.38
X113.73Y-136.92
X115.Y-55.
X115.24Y-74.73
X115.24Y-77.27
X115.24Y-90.73
X115.24Y-93.27
X115.24Y-106.73
X115.24Y-109.27
X115.24Y-122.73
X115.24Y-125.27
X132.Y-55.
T4
X55.Y-89.5
X55.Y-94.5
X55.Y-105.5
X55.Y-110.5
X145.Y-71.5
X145.Y-76.5
X145.Y-84.5
X145.Y-89.5
X145.Y-97.5
X145.Y-102.5
X145.Y-110.5
X145.Y-115.5
X145.Y-123.5
X145.Y-128.5
T5
X60.Y-60.
X60.Y-140.
X140.Y-60.
X140.Y-140.
T0
M30
